#N canvas 0 44 646 484 10;
#X declare -stdlib Gem -stdpath Gem -path include;
#X text 512 459 2016 \, Roman Haefeli;
#X obj 10 15 declare -stdlib Gem -stdpath Gem -path include;
#X obj 14 66 adc~ 1;
#X obj 551 14 loadbang;
#X obj 104 68 fileplayer;
#X msg 551 36 \; pd dsp 1 \; outgain 50 \;;
#X obj 227 132 table detected_notes 128;
#X obj 14 132 tone-analyzer detected_notes;
#X text 194 132 -->;
#X obj 14 164 t b b;
#X obj 57 164 s refreshpreview;
#N canvas 67 44 835 120 PREVIEW 1;
#X obj 31 29 subpix 38 b;
#X obj 96 29 subpix 40 b;
#X obj 161 29 subpix 42;
#X obj 226 29 subpix 43;
#X obj 291 29 subpix 45;
#X obj 356 29 subpix 47 b;
#X obj 421 29 subpix 49 b;
#X obj 486 29 subpix 50 b;
#X obj 551 29 subpix 52 b;
#X obj 616 29 subpix 54 b;
#X obj 681 29 subpix 55 b;
#X obj 746 29 subpix 57 b;
#X obj 52 29 subpix 59 g;
#X obj 117 29 subpix 61 g;
#X obj 182 29 subpix 62 g;
#X obj 247 29 subpix 64 g;
#X obj 312 29 subpix 66 g;
#X obj 377 29 subpix 67 g;
#X obj 442 29 subpix 69 g;
#X obj 507 29 subpix 71 g;
#X obj 572 29 subpix 73 g;
#X obj 637 29 subpix 74 g;
#X obj 702 29 subpix 76 g;
#X obj 767 29 subpix 78 g;
#X obj 138 29 subpix 81 r;
#X obj 73 29 subpix 79 r;
#X obj 203 29 subpix 83 r;
#X obj 268 29 subpix 85 r;
#X obj 333 29 subpix 86 r;
#X obj 398 29 subpix 88 r;
#X obj 463 29 subpix 90 r;
#X obj 528 29 subpix 91 r;
#X obj 593 29 subpix 93 r;
#X obj 658 29 subpix 95 r;
#X obj 723 29 subpix 97 r;
#X obj 788 29 subpix 98 r;
#X restore 437 17 pd PREVIEW;
#X obj 14 203 color-mapper detected_notes;
#X text 102 48 load soundfile (wav or aiff):;
#X obj 147 292 table r 12;
#X obj 147 312 table g 12;
#X obj 147 332 table b 12;
#X obj 16 248 tgl 20 0 empty empty empty 17 7 0 10 -232576 -1 -1 0
1;
#X text 43 251 <- turn gradient rendering on/off;
#X obj 14 91 *~ 0;
#X text 17 46 audio in;
#X obj 58 66 tgl 20 0 empty empty empty 17 7 0 10 -232576 -1 -1 0 1
;
#X obj 16 292 gradient-display;
#X connect 2 0 19 0;
#X connect 3 0 5 0;
#X connect 4 0 7 0;
#X connect 7 0 9 0;
#X connect 9 0 12 0;
#X connect 9 1 10 0;
#X connect 17 0 22 0;
#X connect 19 0 7 0;
#X connect 21 0 19 1;
