#N canvas 0 44 633 405 10;
#X declare -stdlib Gem -stdpath Gem -path include;
#X text 500 373 2016 \, Roman Haefeli;
#X obj 10 15 declare -stdlib Gem -stdpath Gem -path include;
#X obj 14 66 adc~ 1;
#X obj 551 14 loadbang;
#X obj 99 69 fileplayer;
#X obj 227 132 table detected_notes 128;
#X obj 14 132 tone-analyzer detected_notes;
#X text 194 132 -->;
#N canvas 67 44 802 85 PREVIEW 0;
#X obj 10 10 subpix 0 b;
#X obj 31 10 subpix 0 g;
#X obj 51 10 subpix 0 r;
#X obj 75 10 subpix 1 b;
#X obj 96 10 subpix 1 g;
#X obj 116 10 subpix 1 r;
#X obj 140 10 subpix 2 b;
#X obj 161 10 subpix 2 g;
#X obj 181 10 subpix 2 r;
#X obj 205 10 subpix 3 b;
#X obj 226 10 subpix 3 g;
#X obj 246 10 subpix 3 r;
#X obj 270 10 subpix 4 b;
#X obj 291 10 subpix 4 g;
#X obj 311 10 subpix 4 r;
#X obj 335 10 subpix 5 b;
#X obj 356 10 subpix 5 g;
#X obj 376 10 subpix 5 r;
#X obj 400 10 subpix 6 b;
#X obj 421 10 subpix 6 g;
#X obj 441 10 subpix 6 r;
#X obj 465 10 subpix 7 b;
#X obj 486 10 subpix 7 g;
#X obj 506 10 subpix 7 r;
#X obj 530 10 subpix 8 b;
#X obj 551 10 subpix 8 g;
#X obj 571 10 subpix 8 r;
#X obj 595 10 subpix 9 b;
#X obj 616 10 subpix 9 g;
#X obj 636 10 subpix 9 r;
#X obj 660 10 subpix 10 b;
#X obj 681 10 subpix 10 g;
#X obj 701 10 subpix 10 r;
#X obj 725 10 subpix 11 b;
#X obj 746 10 subpix 11 g;
#X obj 766 10 subpix 11 r;
#X restore 437 17 pd PREVIEW;
#X obj 14 193 color-mapper detected_notes;
#X text 102 48 load soundfile (wav or aiff):;
#X obj 147 332 table r 12;
#X obj 147 352 table g 12;
#X obj 147 372 table b 12;
#X obj 16 238 tgl 20 0 empty gemwin.switch empty 17 7 0 10 -232576
-1 -1 1 1;
#X obj 14 91 *~ 0;
#X text 17 46 audio in;
#X obj 58 66 tgl 20 0 empty empty empty 17 7 0 10 -232576 -1 -1 0 1
;
#X obj 16 332 gradient-display;
#X obj 97 107 dac~;
#X msg 551 36 \; pd dsp 1 \; outgain 1 \;;
#X obj 109 298 bng 15 250 50 0 empty empty empty 17 7 0 10 -261682
-1 -1;
#X text 128 296 <- reload window configuration;
#X text 43 241 <- turn gradient rendering on/off;
#X obj 173 168 bng 15 250 50 0 empty empty empty 17 7 0 10 -261682
-1 -1;
#X text 192 166 <- reload color mapping;
#X text 119 332 <--;
#X obj 351 237 vsl 20 128 0 1.5 0 0 rgain rgain R 5 20 0 16 -258113
-1 -1 8467 1;
#X floatatom 344 368 4 0 0 0 - rgain -, f 4;
#X obj 371 237 vsl 20 128 0 1.5 0 0 ggain ggain G 5 20 0 16 -4034 -1
-1 8467 1;
#X floatatom 370 368 4 0 0 0 - ggain -, f 4;
#X obj 391 237 vsl 20 128 0 1.5 0 0 bgain bgain B 5 20 0 16 -4160 -1
-1 8467 1;
#X floatatom 396 368 4 0 0 0 - bgain -, f 4;
#X text 349 217 == GAIN ==;
#X obj 442 235 tgl 30 0 gradients gradients empty 17 7 0 10 -228856
-1 -1 1 1;
#X text 440 217 == GRADIENTS ==;
#X text 476 236 <- gradients;
#X text 494 250 or bars;
#X text 63 258 Use 'q' key to exit from fullscreen mode!;
#X connect 2 0 15 0;
#X connect 3 0 20 0;
#X connect 4 0 6 0;
#X connect 4 0 19 0;
#X connect 4 0 19 1;
#X connect 6 0 9 0;
#X connect 14 0 18 0;
#X connect 15 0 6 0;
#X connect 17 0 15 1;
#X connect 21 0 18 1;
#X connect 24 0 9 1;
