#N canvas 0 44 627 563 10;
#X declare -stdlib Gem -stdpath Gem -path include;
#X text 496 534 2016 \, Roman Haefeli;
#X obj 10 15 declare -stdlib Gem -stdpath Gem -path include;
#X obj 14 66 adc~ 1;
#X obj 533 11 loadbang;
#X obj 99 69 fileplayer;
#X obj 228 132 table detected_notes 128;
#X obj 14 132 tone-analyzer detected_notes;
#X text 194 132 -->;
#N canvas 67 44 802 85 PREVIEW 0;
#X obj 10 10 subpix 0 b;
#X obj 31 10 subpix 0 g;
#X obj 51 10 subpix 0 r;
#X obj 75 10 subpix 1 b;
#X obj 96 10 subpix 1 g;
#X obj 116 10 subpix 1 r;
#X obj 140 10 subpix 2 b;
#X obj 161 10 subpix 2 g;
#X obj 181 10 subpix 2 r;
#X obj 205 10 subpix 3 b;
#X obj 226 10 subpix 3 g;
#X obj 246 10 subpix 3 r;
#X obj 270 10 subpix 4 b;
#X obj 291 10 subpix 4 g;
#X obj 311 10 subpix 4 r;
#X obj 335 10 subpix 5 b;
#X obj 356 10 subpix 5 g;
#X obj 376 10 subpix 5 r;
#X obj 400 10 subpix 6 b;
#X obj 421 10 subpix 6 g;
#X obj 441 10 subpix 6 r;
#X obj 465 10 subpix 7 b;
#X obj 486 10 subpix 7 g;
#X obj 506 10 subpix 7 r;
#X obj 530 10 subpix 8 b;
#X obj 551 10 subpix 8 g;
#X obj 571 10 subpix 8 r;
#X obj 595 10 subpix 9 b;
#X obj 616 10 subpix 9 g;
#X obj 636 10 subpix 9 r;
#X obj 660 10 subpix 10 b;
#X obj 681 10 subpix 10 g;
#X obj 701 10 subpix 10 r;
#X obj 725 10 subpix 11 b;
#X obj 746 10 subpix 11 g;
#X obj 766 10 subpix 11 r;
#X restore 437 17 pd PREVIEW;
#X obj 14 193 color-mapper detected_notes;
#X text 102 48 load soundfile (wav or aiff):;
#X obj 147 332 table r 12;
#X obj 147 352 table g 12;
#X obj 147 372 table b 12;
#X obj 16 238 tgl 20 0 empty gemwin.switch empty 17 7 0 10 -232576
-1 -1 1 1;
#X obj 14 91 *~ 0;
#X text 17 46 audio in;
#X obj 58 66 tgl 20 0 empty audioinput empty 17 7 0 10 -232576 -1 -1
0 1;
#X obj 16 332 gradient-display;
#X obj 97 107 dac~;
#X text 43 241 <- turn gradient rendering on/off;
#X text 119 332 <--;
#X obj 351 187 vsl 20 128 0.1 10 1 0 rgain rgain R 5 20 0 16 -258113
-1 -1 6350 1;
#X floatatom 344 318 4 0 0 0 - rgain -, f 4;
#X obj 371 187 vsl 20 128 0.1 10 1 0 ggain ggain G 5 20 0 16 -4034
-1 -1 6350 1;
#X floatatom 370 318 4 0 0 0 - ggain -, f 4;
#X obj 391 187 vsl 20 128 0.1 10 1 0 bgain bgain B 5 20 0 16 -4160
-1 -1 6350 1;
#X floatatom 396 318 4 0 0 0 - bgain -, f 4;
#X text 349 167 == GAIN ==;
#X text 63 258 Use 'q' key to exit from fullscreen mode!;
#X text 440 167 == INTERPOLATION ==;
#X obj 441 198 vradio 24 1 0 3 interpolation interpolation empty 0
-8 0 10 -228856 -1 -1 1;
#X text 473 202 none;
#X text 471 227 bilinear;
#X text 474 253 bicubic;
#N canvas 414 44 427 565 EQUALIZER 0;
#X obj 14 11 eq-band 11;
#X obj 194 536 bng 15 250 50 0 equalizer-reset empty empty 17 7 0 10
-258113 -1 -1;
#N canvas 701 233 504 376 eq_preset_saving 0;
#X obj 77 91 text search config;
#X msg 77 68 list [ EQUALIZER ];
#X obj 26 161 text get config;
#X obj 26 112 until;
#X obj 26 137 f;
#X obj 53 137 + 1;
#X obj 149 185 sel 2;
#X obj 26 183 list trim;
#X obj 26 205 route bang;
#X obj 62 113 f;
#X obj 26 45 t b b b;
#X obj 83 230 route # [;
#X obj 149 208 t b;
#X msg 134 274 \; \$1 \$2;
#X obj 134 253 list;
#X obj 26 17 r config-ready;
#X obj 281 28 r write-config;
#X obj 308 94 text search config;
#X obj 281 50 t a a;
#X msg 308 71 symbol \$1;
#X msg 346 143 1;
#X obj 346 122 loadbang;
#X msg 281 134 \$2;
#X obj 281 183 text set config;
#X connect 0 0 9 1;
#X connect 1 0 0 0;
#X connect 2 0 7 0;
#X connect 2 1 6 0;
#X connect 3 0 4 0;
#X connect 4 0 5 0;
#X connect 4 0 2 0;
#X connect 5 0 4 1;
#X connect 6 0 12 0;
#X connect 7 0 8 0;
#X connect 8 1 11 0;
#X connect 9 0 5 0;
#X connect 10 0 3 0;
#X connect 10 1 9 0;
#X connect 10 2 1 0;
#X connect 11 1 12 0;
#X connect 11 2 14 0;
#X connect 12 0 3 1;
#X connect 14 0 13 0;
#X connect 15 0 10 0;
#X connect 16 0 18 0;
#X connect 17 0 23 1;
#X connect 18 0 22 0;
#X connect 18 1 19 0;
#X connect 19 0 17 0;
#X connect 20 0 23 2;
#X connect 21 0 20 0;
#X connect 22 0 23 0;
#X restore 298 535 pd eq_preset_saving;
#X text 213 536 reset to 1;
#X obj 14 536 bng 15 250 50 0 save-config empty empty 17 7 0 10 -204786
-1 -1;
#X text 34 535 save current settings;
#X obj 14 473 eq-band 0;
#X obj 14 431 eq-band 1;
#X obj 14 389 eq-band 2;
#X obj 14 347 eq-band 3;
#X obj 14 305 eq-band 4;
#X obj 14 263 eq-band 5;
#X obj 14 221 eq-band 6;
#X obj 14 179 eq-band 7;
#X obj 14 137 eq-band 8;
#X obj 14 95 eq-band 9;
#X obj 14 53 eq-band 10;
#X restore 437 40 pd EQUALIZER;
#N canvas 520 214 314 215 config 0;
#X obj 37 13 loadbang;
#X obj 37 43 t b b;
#X obj 37 184 s config-ready;
#X obj 64 159 text define config;
#X msg 64 66 read -c configuration.txt;
#X obj 91 13 r reload-config;
#X msg 118 132 write -c configuration.txt;
#X obj 118 105 r save-config;
#X connect 0 0 1 0;
#X connect 1 0 2 0;
#X connect 1 1 4 0;
#X connect 4 0 3 0;
#X connect 5 0 1 0;
#X connect 6 0 3 0;
#X connect 7 0 6 0;
#X restore 305 15 pd config;
#X obj 398 131 bng 24 250 50 0 reload-config empty empty 17 7 0 10
-261682 -1 -1;
#X text 432 136 <- reload configuration;
#X obj 10 409 cnv 15 200 100 empty empty empty 20 12 0 14 -261234 -66577
0;
#N canvas 0 0 450 300 (subpatch) 0;
#X array r.outlevel 12 float 2;
#X coords 0 1 12 0 200 100 1 0 0;
#X restore 10 409 graph;
#X obj 210 409 cnv 15 200 100 empty empty empty 20 12 0 14 -204786
-66577 0;
#N canvas 0 0 450 300 (subpatch) 0;
#X array g.outlevel 12 float 2;
#X coords 0 1 12 0 200 100 1 0 0;
#X restore 210 409 graph;
#X obj 410 409 cnv 15 200 100 empty empty empty 20 12 0 14 -203904
-66577 0;
#N canvas 0 0 450 300 (subpatch) 0;
#X array b.outlevel 12 float 2;
#X coords 0 1 12 0 200 100 1 0 0;
#X restore 410 409 graph;
#X obj 439 308 tgl 24 0 err-corr err-corr empty 17 7 0 10 -232576 -1
-1 0 1;
#X msg 533 33 \; pd dsp 1 \; outgain 36 \; err-corr 1 \;;
#X text 488 343 take max of last;
#X text 440 287 == FILTER ==;
#X text 472 312 enable/disable;
#X obj 439 343 nbx 4 14 1 30 0 0 maxoflast maxoflast empty 0 -8 0 10
-232576 -1 -1 4 256;
#X obj 439 363 nbx 4 14 1 10 0 0 lowpass lowpass empty 0 -8 0 10 -232576
-1 -1 1.91 256;
#X text 488 364 low pass filter;
#X connect 2 0 15 0;
#X connect 3 0 46 0;
#X connect 4 0 6 0;
#X connect 4 0 19 0;
#X connect 4 0 19 1;
#X connect 6 0 9 0;
#X connect 14 0 18 0;
#X connect 15 0 6 0;
#X connect 17 0 15 1;
