#N canvas 0 44 633 405 10;
#X declare -stdlib Gem -stdpath Gem -path include;
#X text 500 373 2016 \, Roman Haefeli;
#X obj 10 15 declare -stdlib Gem -stdpath Gem -path include;
#X obj 14 66 adc~ 1;
#X obj 533 11 loadbang;
#X obj 99 69 fileplayer;
#X obj 228 132 table detected_notes 128;
#X obj 14 132 tone-analyzer detected_notes;
#X text 194 132 -->;
#N canvas 67 44 802 85 PREVIEW 0;
#X obj 10 10 subpix 0 b;
#X obj 31 10 subpix 0 g;
#X obj 51 10 subpix 0 r;
#X obj 75 10 subpix 1 b;
#X obj 96 10 subpix 1 g;
#X obj 116 10 subpix 1 r;
#X obj 140 10 subpix 2 b;
#X obj 161 10 subpix 2 g;
#X obj 181 10 subpix 2 r;
#X obj 205 10 subpix 3 b;
#X obj 226 10 subpix 3 g;
#X obj 246 10 subpix 3 r;
#X obj 270 10 subpix 4 b;
#X obj 291 10 subpix 4 g;
#X obj 311 10 subpix 4 r;
#X obj 335 10 subpix 5 b;
#X obj 356 10 subpix 5 g;
#X obj 376 10 subpix 5 r;
#X obj 400 10 subpix 6 b;
#X obj 421 10 subpix 6 g;
#X obj 441 10 subpix 6 r;
#X obj 465 10 subpix 7 b;
#X obj 486 10 subpix 7 g;
#X obj 506 10 subpix 7 r;
#X obj 530 10 subpix 8 b;
#X obj 551 10 subpix 8 g;
#X obj 571 10 subpix 8 r;
#X obj 595 10 subpix 9 b;
#X obj 616 10 subpix 9 g;
#X obj 636 10 subpix 9 r;
#X obj 660 10 subpix 10 b;
#X obj 681 10 subpix 10 g;
#X obj 701 10 subpix 10 r;
#X obj 725 10 subpix 11 b;
#X obj 746 10 subpix 11 g;
#X obj 766 10 subpix 11 r;
#X restore 437 17 pd PREVIEW;
#X obj 14 193 color-mapper detected_notes;
#X text 102 48 load soundfile (wav or aiff):;
#X obj 147 332 table r 12;
#X obj 147 352 table g 12;
#X obj 147 372 table b 12;
#X obj 16 238 tgl 20 0 empty gemwin.switch empty 17 7 0 10 -232576
-1 -1 0 1;
#X obj 14 91 *~ 0;
#X text 17 46 audio in;
#X obj 58 66 tgl 20 0 empty audioinput empty 17 7 0 10 -232576 -1 -1
0 1;
#X obj 16 332 gradient-display;
#X obj 97 107 dac~;
#X obj 109 298 bng 15 250 50 0 empty empty empty 17 7 0 10 -261682
-1 -1;
#X text 128 296 <- reload window configuration;
#X text 43 241 <- turn gradient rendering on/off;
#X obj 173 168 bng 15 250 50 0 empty empty empty 17 7 0 10 -261682
-1 -1;
#X text 192 166 <- reload color mapping;
#X text 119 332 <--;
#X obj 351 237 vsl 20 128 0 1.5 0 0 rgain rgain R 5 20 0 16 -258113
-1 -1 8467 1;
#X floatatom 344 368 4 0 0 0 - rgain -, f 4;
#X obj 371 237 vsl 20 128 0 1.5 0 0 ggain ggain G 5 20 0 16 -4034 -1
-1 8467 1;
#X floatatom 370 368 4 0 0 0 - ggain -, f 4;
#X obj 391 237 vsl 20 128 0 1.5 0 0 bgain bgain B 5 20 0 16 -4160 -1
-1 8467 1;
#X floatatom 396 368 4 0 0 0 - bgain -, f 4;
#X text 349 217 == GAIN ==;
#X text 63 258 Use 'q' key to exit from fullscreen mode!;
#X msg 533 33 \; pd dsp 1 \; outgain 0.82 \;;
#X text 440 217 == INTERPOLATION ==;
#X obj 441 248 vradio 24 1 0 3 interpolation interpolation empty 0
-8 0 10 -228856 -1 -1 1;
#X text 473 252 none;
#X text 471 277 bilinear;
#X text 472 303 bicubic;
#N canvas 414 44 427 565 EQUALIZER 0;
#X obj 14 11 eq-band 11;
#X obj 14 473 eq-band 0;
#X obj 14 431 eq-band 1;
#X obj 14 389 eq-band 2;
#X obj 14 347 eq-band 3;
#X obj 14 305 eq-band 4;
#X obj 14 263 eq-band 5;
#X obj 14 221 eq-band 6;
#X obj 14 179 eq-band 7;
#X obj 14 137 eq-band 8;
#X obj 14 95 eq-band 9;
#X obj 14 53 eq-band 10;
#X obj 14 536 bng 15 250 50 0 reset-equalizer empty empty 17 7 0 10
-258113 -1 -1;
#X text 35 535 reset;
#X restore 445 129 pd EQUALIZER;
#X connect 2 0 15 0;
#X connect 3 0 34 0;
#X connect 4 0 6 0;
#X connect 4 0 19 0;
#X connect 4 0 19 1;
#X connect 6 0 9 0;
#X connect 14 0 18 0;
#X connect 15 0 6 0;
#X connect 17 0 15 1;
#X connect 20 0 18 1;
#X connect 23 0 9 1;
