#N canvas 267 517 1024 358 10;
#X obj 25 66 hsl 128 15 0 1 0 0 empty empty empty -2 -8 0 10 -262144
-1 -1 12700 1;
#X obj 24 88 hsl 128 15 0 1 0 0 empty empty empty -2 -8 0 10 -262144
-1 -1 12634 1;
#X obj 148 214 expr tanh($f1);
#X obj 148 147 - 0.5;
#X obj 148 169 * 2;
#X obj 148 191 *;
#X floatatom 211 167 5 0 0 0 - - -, f 5;
#X obj 148 236 * 0.5;
#X obj 148 258 + 0.5;
#X text 25 18 TANGENS HYPERBOLICUS;
#X obj 285 66 hsl 128 15 0 1 0 0 empty empty empty -2 -8 0 10 -262144
-1 -1 12700 1;
#X obj 284 88 hsl 128 15 0 1 0 0 empty empty empty -2 -8 0 10 -262144
-1 -1 12700 1;
#X obj 326 234 + 0.5;
#X obj 326 168 *;
#X obj 385 150 loadbang;
#X msg 385 172 4;
#X obj 385 194 atan2;
#X obj 385 216 * 2;
#X obj 326 190 cos;
#X obj 326 212 * -0.5;
#X text 290 23 COSINUS;
#X obj 471 63 hsl 128 15 0 1 0 0 empty empty empty -2 -8 0 10 -262144
-1 -1 12700 1;
#X obj 591 170 pow 2;
#X obj 642 186 pow 2;
#X obj 591 144 * 2;
#X obj 591 205 * 0.5;
#X obj 471 88 hsl 128 15 0 1 0 0 empty empty empty -2 -8 0 10 -262144
-1 -1 12700 1;
#X obj 591 120 moses 0.5;
#X obj 642 142 * -2;
#X obj 642 164 + 2;
#X obj 642 230 + 1;
#X obj 642 208 * -0.5;
#X obj 591 256 t a;
#X floatatom 734 125 5 0 0 0 - - -, f 5;
#X msg 734 73 2;
#X msg 744 96 3;
#X text 766 70 SQUARE;
#X text 776 93 CUBIC;
#X text 477 23 POLYNOMIAL;
#X connect 0 0 3 0;
#X connect 2 0 7 0;
#X connect 3 0 4 0;
#X connect 4 0 5 0;
#X connect 5 0 2 0;
#X connect 6 0 5 1;
#X connect 7 0 8 0;
#X connect 8 0 1 0;
#X connect 10 0 13 0;
#X connect 12 0 11 0;
#X connect 13 0 18 0;
#X connect 14 0 15 0;
#X connect 15 0 16 0;
#X connect 16 0 17 0;
#X connect 17 0 13 1;
#X connect 18 0 19 0;
#X connect 19 0 12 0;
#X connect 21 0 27 0;
#X connect 22 0 25 0;
#X connect 23 0 31 0;
#X connect 24 0 22 0;
#X connect 25 0 32 0;
#X connect 27 0 24 0;
#X connect 27 1 28 0;
#X connect 28 0 29 0;
#X connect 29 0 23 0;
#X connect 30 0 32 0;
#X connect 31 0 30 0;
#X connect 32 0 26 0;
#X connect 33 0 22 1;
#X connect 33 0 23 1;
#X connect 34 0 33 0;
#X connect 35 0 33 0;
