#N canvas 366 44 416 604 10;
#X declare -stdlib Gem -stdpath Gem;
#X obj 17 44 gemhead;
#X obj 15 458 GEMglEnd;
#X floatatom 50 72 5 0 0 0 - - -, f 5;
#X obj 17 104 GEMglRotatef 0 1 1 1;
#X obj 153 154 GLdefine GL_SMOOTH;
#X obj 153 132 loadbang;
#X obj 153 174 loadbang;
#X obj 153 196 GLdefine GL_POLYGON;
#X obj 17 214 GEMglBegin;
#X obj 17 172 GEMglShadeModel;
#X obj 168 441 loadbang;
#X obj 15 481 GEMglShadeModel;
#X obj 168 463 GLdefine GL_FLAT;
#X msg 220 130 bang;
#X obj 18 15 declare -stdlib Gem -stdpath Gem;
#N canvas 0 50 450 300 gemwin 0;
#X obj 67 89 outlet;
#X obj 67 10 inlet;
#X obj 67 41 route create;
#X msg 67 70 set destroy;
#X msg 142 68 set create;
#X msg 132 112 create \, 1;
#X msg 198 112 destroy;
#X obj 132 136 gemwin;
#X connect 1 0 2 0;
#X connect 2 0 3 0;
#X connect 2 0 5 0;
#X connect 2 1 4 0;
#X connect 2 1 6 0;
#X connect 3 0 0 0;
#X connect 4 0 0 0;
#X connect 5 0 7 0;
#X connect 6 0 7 0;
#X restore 300 34 pd gemwin;
#X msg 300 15 destroy;
#X obj 17 313 GEMglVertex2f -1 0;
#X obj 17 270 GEMglColor3f 1 0 0;
#X obj 17 352 GEMglVertex2f 0 -1;
#X obj 17 384 GEMglVertex2f 1 0;
#X obj 15 415 GEMglVertex2f 0 1;
#X connect 0 0 3 0;
#X connect 1 0 11 0;
#X connect 2 0 3 1;
#X connect 3 0 9 0;
#X connect 4 0 9 1;
#X connect 5 0 4 0;
#X connect 6 0 7 0;
#X connect 7 0 8 1;
#X connect 8 0 18 0;
#X connect 9 0 8 0;
#X connect 10 0 12 0;
#X connect 12 0 11 1;
#X connect 13 0 4 0;
#X connect 15 0 16 0;
#X connect 16 0 15 0;
#X connect 17 0 19 0;
#X connect 18 0 17 0;
#X connect 19 0 20 0;
#X connect 20 0 21 0;
#X connect 21 0 1 0;
