#N canvas 366 44 399 630 10;
#X declare -stdlib Gem -stdpath Gem;
#X obj 17 44 gemhead;
#X obj 18 15 declare -stdlib Gem -stdpath Gem;
#N canvas 0 50 450 300 gemwin 0;
#X obj 67 89 outlet;
#X obj 67 10 inlet;
#X obj 67 41 route create;
#X msg 67 70 set destroy;
#X msg 142 68 set create;
#X msg 198 152 destroy;
#X obj 132 176 gemwin;
#X msg 132 130 dimen 640 360 \, create \, 1;
#X connect 1 0 2 0;
#X connect 2 0 3 0;
#X connect 2 0 7 0;
#X connect 2 1 4 0;
#X connect 2 1 5 0;
#X connect 3 0 0 0;
#X connect 4 0 0 0;
#X connect 5 0 6 0;
#X connect 7 0 6 0;
#X restore 300 34 pd gemwin;
#X msg 300 15 destroy;
#X obj 104 76 GLdefine GL_SMOOTH;
#X obj 104 54 loadbang;
#X obj 17 98 GEMglShadeModel;
#N canvas 0 44 456 422 segment 0;
#X obj 25 26 inlet;
#X obj 256 33 inlet;
#X obj 25 382 GEMglEnd;
#X obj 82 48 loadbang;
#X obj 82 70 GLdefine GL_POLYGON;
#X obj 25 93 GEMglBegin;
#X obj 25 154 GEMglColor3f 1 0 0;
#X obj 25 186 GEMglVertex2f 0 4;
#X obj 25 208 GEMglVertex2f 0 -4;
#X obj 25 243 GEMglColor3f 0 1;
#X obj 25 298 GEMglVertex2f 1.18519 -4;
#X obj 25 323 GEMglVertex2f 1.18519 4;
#X obj 189 141 t a a;
#X obj 216 243 +;
#X obj 304 163 loadbang;
#X msg 304 185 4;
#X obj 304 207 / 9;
#X obj 304 229 * 16;
#X obj 304 251 * 2;
#X obj 304 273 / 12;
#X connect 0 0 5 0;
#X connect 1 0 12 0;
#X connect 3 0 4 0;
#X connect 4 0 5 1;
#X connect 5 0 6 0;
#X connect 6 0 7 0;
#X connect 7 0 8 0;
#X connect 8 0 9 0;
#X connect 9 0 10 0;
#X connect 10 0 11 0;
#X connect 11 0 2 0;
#X connect 12 0 7 1;
#X connect 12 0 8 1;
#X connect 12 1 13 0;
#X connect 13 0 10 1;
#X connect 13 0 11 1;
#X connect 14 0 15 0;
#X connect 15 0 16 0;
#X connect 16 0 17 0;
#X connect 17 0 18 0;
#X connect 18 0 19 0;
#X connect 19 0 13 1;
#X restore 37 394 pd segment;
#X obj 37 282 gemlist;
#X obj 37 214 until;
#X obj 37 236 f;
#X obj 80 238 + 1;
#X msg 97 208 0;
#X obj 37 170 t b b a;
#X obj 37 258 t b a;
#X obj 94 311 * 1.18519;
#X obj 251 163 table r 12;
#X obj 251 186 table g 12;
#X obj 94 333 - 6.51852;
#X msg 37 192 13;
#X obj 255 212 table b 12;
#X connect 0 0 6 0;
#X connect 2 0 3 0;
#X connect 3 0 2 0;
#X connect 4 0 6 1;
#X connect 5 0 4 0;
#X connect 6 0 13 0;
#X connect 8 0 7 0;
#X connect 9 0 10 0;
#X connect 10 0 11 0;
#X connect 10 0 14 0;
#X connect 11 0 10 1;
#X connect 12 0 10 1;
#X connect 13 0 19 0;
#X connect 13 1 12 0;
#X connect 13 2 8 1;
#X connect 14 0 8 0;
#X connect 14 1 15 0;
#X connect 15 0 18 0;
#X connect 18 0 7 1;
#X connect 19 0 9 0;
