#N canvas 366 44 516 628 10;
#X declare -stdlib Gem -stdpath Gem;
#X obj 17 44 gemhead;
#X obj 18 15 declare -stdlib Gem -stdpath Gem;
#N canvas 0 50 450 300 gemwin 0;
#X obj 67 89 outlet;
#X obj 67 10 inlet;
#X obj 67 41 route create;
#X msg 67 70 set destroy;
#X msg 142 68 set create;
#X msg 198 152 destroy;
#X obj 132 176 gemwin;
#X msg 132 130 dimen 640 360 \, create \, 1;
#X connect 1 0 2 0;
#X connect 2 0 3 0;
#X connect 2 0 7 0;
#X connect 2 1 4 0;
#X connect 2 1 5 0;
#X connect 3 0 0 0;
#X connect 4 0 0 0;
#X connect 5 0 6 0;
#X connect 7 0 6 0;
#X restore 300 34 pd gemwin;
#X msg 300 15 destroy;
#X obj 104 76 GLdefine GL_SMOOTH;
#X obj 104 54 loadbang;
#X obj 17 98 GEMglShadeModel;
#X obj 17 322 gemlist;
#X obj 17 254 until;
#X obj 17 276 f;
#X obj 60 278 + 1;
#X msg 77 248 0;
#X obj 17 170 t b b a;
#X obj 297 146 table r 12;
#X obj 297 166 table g 12;
#X obj 297 186 table b 12;
#X obj 87 416 - 7.11111;
#X obj 132 162 t b a;
#X msg 132 184 4;
#X obj 132 228 / 9;
#X obj 132 251 * 16;
#X obj 132 273 * 2;
#X obj 17 232 f;
#X obj 87 394 *;
#X obj 297 86 loadbang;
#X msg 297 108 \; segments 11 \;;
#X obj 132 138 r segments;
#X obj 32 200 r segments;
#X obj 132 206 /;
#X obj 17 298 t b a a;
#X obj 185 323 t a a a;
#X obj 185 386 tabread r;
#X obj 204 366 tabread g;
#X obj 224 346 tabread b;
#X obj 184 414 pack f f f;
#N canvas 189 331 539 429 segment 0;
#X obj 25 26 inlet;
#X obj 233 37 inlet;
#X obj 25 382 GEMglEnd;
#X obj 82 48 loadbang;
#X obj 82 70 GLdefine GL_POLYGON;
#X obj 25 93 GEMglBegin;
#X obj 25 186 GEMglVertex2f 0 4;
#X obj 25 208 GEMglVertex2f 0 -4;
#X obj 25 298 GEMglVertex2f 1.18519 -4;
#X obj 25 323 GEMglVertex2f 1.18519 4;
#X obj 189 141 t a a;
#X obj 216 243 +;
#X msg 304 185 4;
#X obj 304 207 / 9;
#X obj 304 229 * 16;
#X obj 304 251 * 2;
#X obj 304 273 / 12;
#X obj 304 133 r segments;
#X obj 304 155 t b a;
#X obj 230 210 t b a;
#X obj 336 38 inlet;
#X obj 25 154 GEMglColor3f 1 0 0;
#X obj 67 128 unpack f f f;
#X obj 63 238 unpack f f f;
#X obj 25 263 GEMglColor3f 0 0 0;
#X obj 428 38 inlet;
#X connect 0 0 5 0;
#X connect 1 0 10 0;
#X connect 3 0 4 0;
#X connect 4 0 5 1;
#X connect 5 0 21 0;
#X connect 6 0 7 0;
#X connect 7 0 24 0;
#X connect 8 0 9 0;
#X connect 9 0 2 0;
#X connect 10 0 6 1;
#X connect 10 0 7 1;
#X connect 10 1 11 0;
#X connect 11 0 8 1;
#X connect 11 0 9 1;
#X connect 12 0 13 0;
#X connect 13 0 14 0;
#X connect 14 0 15 0;
#X connect 15 0 16 0;
#X connect 16 0 19 0;
#X connect 17 0 18 0;
#X connect 18 0 12 0;
#X connect 18 1 16 1;
#X connect 19 0 11 0;
#X connect 19 1 11 1;
#X connect 20 0 22 0;
#X connect 21 0 6 0;
#X connect 22 0 21 1;
#X connect 22 1 21 2;
#X connect 22 2 21 3;
#X connect 23 0 24 1;
#X connect 23 1 24 2;
#X connect 23 2 24 3;
#X connect 24 0 8 0;
#X connect 25 0 23 0;
#X restore 17 499 pd segment _____________;
#X obj 300 326 t a a a;
#X obj 300 389 tabread r;
#X obj 319 369 tabread g;
#X obj 339 349 tabread b;
#X obj 300 414 pack f f f;
#X obj 300 302 + 1;
#X connect 0 0 6 0;
#X connect 2 0 3 0;
#X connect 3 0 2 0;
#X connect 4 0 6 1;
#X connect 5 0 4 0;
#X connect 6 0 12 0;
#X connect 7 0 35 0;
#X connect 8 0 9 0;
#X connect 9 0 10 0;
#X connect 9 0 29 0;
#X connect 10 0 9 1;
#X connect 11 0 9 1;
#X connect 12 0 22 0;
#X connect 12 1 11 0;
#X connect 12 2 7 1;
#X connect 16 0 35 1;
#X connect 17 0 18 0;
#X connect 17 1 28 1;
#X connect 18 0 28 0;
#X connect 19 0 20 0;
#X connect 20 0 21 0;
#X connect 21 0 23 1;
#X connect 22 0 8 0;
#X connect 23 0 16 0;
#X connect 24 0 25 0;
#X connect 26 0 17 0;
#X connect 27 0 22 1;
#X connect 28 0 19 0;
#X connect 29 0 7 0;
#X connect 29 1 23 0;
#X connect 29 2 30 0;
#X connect 29 2 41 0;
#X connect 30 0 31 0;
#X connect 30 1 32 0;
#X connect 30 2 33 0;
#X connect 31 0 34 0;
#X connect 32 0 34 1;
#X connect 33 0 34 2;
#X connect 34 0 35 2;
#X connect 36 0 37 0;
#X connect 36 1 38 0;
#X connect 36 2 39 0;
#X connect 37 0 40 0;
#X connect 38 0 40 1;
#X connect 39 0 40 2;
#X connect 40 0 35 3;
#X connect 41 0 36 0;
