#N canvas 67 212 537 449 10;
#X obj 80 138 readsf~ 1;
#X obj 113 14 bng 20 250 50 0 empty empty empty 17 7 0 10 -260097 -1
-1;
#X obj 113 49 openpanel;
#X obj 245 40 tgl 20 0 empty empty empty 17 7 0 10 -4034 -1 -1 0 1
;
#X obj 80 76 symbol;
#X msg 80 106 open \$1 \, start;
#X obj 245 74 sel 1 0;
#X msg 264 99 stop;
#X obj 104 170 dac~;
#X msg 80 224 \$1 \$2 \$3;
#N canvas 599 262 450 300 freq2pitch 0;
#X obj 7 20 inlet;
#X obj 7 42 unpack f f f;
#X obj 7 154 pack f f f;
#X obj 7 176 outlet;
#X obj 41 67 ftom;
#X obj 40 118 int;
#X obj 40 95 + 0.5;
#X connect 0 0 1 0;
#X connect 1 0 2 0;
#X connect 1 1 4 0;
#X connect 1 2 2 2;
#X connect 2 0 3 0;
#X connect 4 0 6 0;
#X connect 5 0 2 1;
#X connect 6 0 5 0;
#X restore 80 251 pd freq2pitch;
#X obj 81 418 table notes 128;
#N canvas 335 183 415 343 write_to_table 0;
#X obj 72 30 inlet;
#X obj 72 51 t a a;
#X msg 47 222 const 0;
#X obj 47 244 s notes;
#X obj 99 129 s notes;
#X obj 72 76 t b a;
#X obj 103 257 outlet;
#X msg 99 104 \$2 \$3;
#N canvas 844 586 265 277 reblocking 0;
#X obj 71 110 bang~;
#X obj 71 132 outlet;
#X obj 44 60 block~ 2048 1 1;
#X connect 0 0 1 0;
#X restore 76 171 pd reblocking;
#X obj 76 193 t b b;
#X connect 0 0 1 0;
#X connect 1 0 5 0;
#X connect 2 0 3 0;
#X connect 5 1 7 0;
#X connect 7 0 4 0;
#X connect 8 0 9 0;
#X connect 9 0 2 0;
#X connect 9 1 6 0;
#X restore 80 278 pd write_to_table;
#N canvas 38 82 318 261 flush_table 0;
#X obj 18 10 inlet;
#X obj 18 32 t b b;
#X msg 62 77 0;
#X msg 18 54 128;
#X obj 18 76 until;
#X obj 18 98 f;
#X obj 62 100 + 1;
#X obj 45 143 tabread notes;
#X obj 18 120 t a a;
#X obj 18 170 pack f f;
#X obj 18 197 outlet;
#X connect 0 0 1 0;
#X connect 1 0 3 0;
#X connect 1 1 2 0;
#X connect 2 0 5 1;
#X connect 3 0 4 0;
#X connect 4 0 5 0;
#X connect 5 0 6 0;
#X connect 5 0 8 0;
#X connect 6 0 5 1;
#X connect 7 0 9 1;
#X connect 8 0 9 0;
#X connect 8 1 7 0;
#X connect 9 0 10 0;
#X restore 80 320 pd flush_table;
#N canvas 67 44 835 120 DISPLAY 1;
#X obj 31 29 subpix 38 b;
#X obj 96 29 subpix 40 b;
#X obj 161 29 subpix 42;
#X obj 226 29 subpix 43;
#X obj 291 29 subpix 45;
#X obj 356 29 subpix 47 b;
#X obj 421 29 subpix 49 b;
#X obj 486 29 subpix 50 b;
#X obj 551 29 subpix 52 b;
#X obj 616 29 subpix 54 b;
#X obj 681 29 subpix 55 b;
#X obj 746 29 subpix 57 b;
#X obj 52 29 subpix 59 g;
#X obj 117 29 subpix 61 g;
#X obj 182 29 subpix 62 g;
#X obj 247 29 subpix 64 g;
#X obj 312 29 subpix 66 g;
#X obj 377 29 subpix 67 g;
#X obj 442 29 subpix 69 g;
#X obj 507 29 subpix 71 g;
#X obj 572 29 subpix 73 g;
#X obj 637 29 subpix 74 g;
#X obj 702 29 subpix 76 g;
#X obj 767 29 subpix 78 g;
#X obj 138 29 subpix 81 r;
#X obj 73 29 subpix 79 r;
#X obj 203 29 subpix 83 r;
#X obj 268 29 subpix 85 r;
#X obj 333 29 subpix 86 r;
#X obj 398 29 subpix 88 r;
#X obj 463 29 subpix 90 r;
#X obj 528 29 subpix 91 r;
#X obj 593 29 subpix 93 r;
#X obj 658 29 subpix 95 r;
#X obj 723 29 subpix 97 r;
#X obj 788 29 subpix 98 r;
#X restore 437 17 pd DISPLAY;
#X floatatom 152 355 5 0 0 0 - - -, f 5;
#N canvas 0 44 323 201 scale 0;
#X obj 27 97 pack f f;
#X obj 27 53 unpack f f;
#X obj 27 26 inlet;
#X obj 109 28 inlet;
#X obj 27 118 outlet;
#X obj 72 75 * 50;
#X connect 0 0 4 0;
#X connect 1 0 0 0;
#X connect 1 1 5 0;
#X connect 2 0 1 0;
#X connect 3 0 5 1;
#X connect 5 0 0 1;
#X restore 80 348 pd scale;
#X obj 80 375 s subpixelvalue;
#X obj 80 202 sigmund~ -npts 8192 -hop 2048 -npeak 36 peaks;
#X text 157 14 <- 1) load a sound file;
#X text 268 44 <- 2) start/stop;
#X obj 437 48 loadbang;
#X msg 437 70 dsp 1;
#X obj 437 92 s pd;
#X text 399 404 2016 \, Roman Haefeli;
#X obj 80 300 t b b;
#X obj 143 297 s refreshdisplay;
#X connect 0 0 8 0;
#X connect 0 0 8 1;
#X connect 0 0 18 0;
#X connect 1 0 2 0;
#X connect 2 0 4 1;
#X connect 3 0 6 0;
#X connect 4 0 5 0;
#X connect 5 0 0 0;
#X connect 6 0 4 0;
#X connect 6 1 7 0;
#X connect 7 0 0 0;
#X connect 9 0 10 0;
#X connect 10 0 12 0;
#X connect 12 0 25 0;
#X connect 13 0 16 0;
#X connect 15 0 16 1;
#X connect 16 0 17 0;
#X connect 18 0 9 0;
#X connect 21 0 22 0;
#X connect 22 0 23 0;
#X connect 25 0 13 0;
#X connect 25 1 26 0;
