#N canvas 426 130 454 397 10;
#X obj 106 31 r subpixelvalue;
#X obj 106 53 route \$1;
#X obj 20 20 cnv 15 20 60 empty \$0.subpixel \$1 2 -10 0 14 -1 -1 0
;
#X obj 106 254 s \$0.subpixel;
#X msg 106 230 color \$1 -1;
#X obj 106 105 * 255;
#X obj 106 127 int;
#X obj 106 171 * -1;
#X obj 106 193 - 1;
#X obj 106 150 << 0;
#X obj 106 83 clip 0 1;
#X obj 248 59 loadbang;
#X obj 248 103 select r g b;
#X msg 248 172 16;
#X msg 271 150 8;
#X msg 294 129 0;
#X obj 248 81 symbol \$2;
#X connect 0 0 1 0;
#X connect 1 0 10 0;
#X connect 4 0 3 0;
#X connect 5 0 6 0;
#X connect 6 0 9 0;
#X connect 7 0 8 0;
#X connect 8 0 4 0;
#X connect 9 0 7 0;
#X connect 10 0 5 0;
#X connect 11 0 16 0;
#X connect 12 0 13 0;
#X connect 12 1 14 0;
#X connect 12 2 15 0;
#X connect 13 0 9 1;
#X connect 14 0 9 1;
#X connect 15 0 9 1;
#X connect 16 0 12 0;
#X coords 0 -1 1 1 20 60 2 20 20;
