#N canvas 147 44 477 446 10;
#X obj 24 146 until;
#X obj 24 171 f;
#X obj 51 171 + 1;
#X obj 147 219 sel 2;
#X obj 24 217 list trim;
#X obj 238 282 t a a;
#X msg 238 304 \$3;
#X obj 238 348 * 50;
#X msg 265 304 \$2 \$1;
#X obj 238 375 list prepend;
#X msg 238 403 \; \$1 \$2 \$3;
#X obj 24 239 route bang;
#X obj 7 24 inlet;
#X obj 238 326 tabread \$1;
#X msg 75 98 list [ COLORMAPPING ];
#X obj 60 147 f;
#X obj 7 303 s refreshdisplay;
#X obj 81 264 route # [;
#X obj 147 242 t b;
#X obj 24 193 text get config;
#X obj 75 120 text search config;
#X obj 7 48 t b b b b;
#X connect 0 0 1 0;
#X connect 1 0 2 0;
#X connect 1 0 19 0;
#X connect 2 0 1 1;
#X connect 3 0 18 0;
#X connect 4 0 11 0;
#X connect 5 0 6 0;
#X connect 5 1 8 0;
#X connect 6 0 13 0;
#X connect 7 0 9 0;
#X connect 8 0 9 1;
#X connect 9 0 10 0;
#X connect 11 1 17 0;
#X connect 12 0 21 0;
#X connect 13 0 7 0;
#X connect 14 0 20 0;
#X connect 15 0 2 0;
#X connect 17 1 18 0;
#X connect 17 2 5 0;
#X connect 18 0 0 1;
#X connect 19 0 4 0;
#X connect 19 1 3 0;
#X connect 20 0 15 1;
#X connect 21 0 16 0;
#X connect 21 1 0 0;
#X connect 21 2 15 0;
#X connect 21 3 14 0;
