#N canvas 147 44 477 446 10;
#X obj 104 74 text define colormapping;
#X obj 77 7 loadbang;
#X obj 26 195 text get colormapping;
#X obj 26 146 until;
#X obj 26 171 f;
#X obj 53 171 + 1;
#X obj 149 219 sel 2;
#X obj 26 217 list trim;
#X obj 25 262 route # displayresolution fullscreen;
#X obj 238 282 t a a;
#X msg 238 304 \$3;
#X obj 238 348 * 50;
#X msg 265 304 \$2 \$1;
#X obj 238 375 list prepend;
#X msg 238 403 \; \$1 \$2 \$3;
#X obj 26 239 route bang;
#X msg 104 52 read -c ../configuration.txt;
#X obj 7 84 inlet;
#X obj 238 326 tabread \$1;
#X obj 77 120 text search colormapping;
#X msg 77 98 list [ COLORMAPPING ];
#X obj 62 147 f;
#X obj 77 29 t b b;
#X obj 135 7 inlet;
#X obj 7 108 t b b b;
#X obj 7 303 s refreshdisplay;
#X connect 1 0 22 0;
#X connect 2 0 7 0;
#X connect 2 1 6 0;
#X connect 3 0 4 0;
#X connect 4 0 5 0;
#X connect 4 0 2 0;
#X connect 5 0 4 1;
#X connect 6 0 3 1;
#X connect 7 0 15 0;
#X connect 8 3 9 0;
#X connect 9 0 10 0;
#X connect 9 1 12 0;
#X connect 10 0 18 0;
#X connect 11 0 13 0;
#X connect 12 0 13 1;
#X connect 13 0 14 0;
#X connect 15 1 8 0;
#X connect 16 0 0 0;
#X connect 17 0 24 0;
#X connect 18 0 11 0;
#X connect 19 0 21 1;
#X connect 20 0 19 0;
#X connect 21 0 5 0;
#X connect 22 0 20 0;
#X connect 22 1 16 0;
#X connect 23 0 22 0;
#X connect 24 0 25 0;
#X connect 24 1 3 0;
#X connect 24 2 21 0;
