#N canvas 551 340 440 263 10;
#X obj 66 20 hsl 300 14 0.1 20 1 0 \$1-r \$1-r empty -2 8 0 10 -258113
-1 -1 14950 1;
#X obj 368 20 nbx 5 14 -1e+37 1e+37 0 0 \$1-r \$1-r empty 0 8 0 10
-261234 -1 -1 1 256;
#X obj 66 34 hsl 300 14 0.1 20 1 0 \$1-g \$1-g empty -2 -8 0 10 -4034
-1 -1 14950 1;
#X obj 368 34 nbx 5 14 -1e+37 1e+37 0 0 \$1-g \$1-g empty 0 -8 0 10
-204786 -1 -1 1 256;
#X obj 66 48 hsl 300 14 0.1 20 1 0 \$1-b \$1-b empty -2 -8 0 10 -4160
-1 -1 14950 1;
#X obj 368 48 nbx 5 14 -1e+37 1e+37 0 0 \$1-b \$1-b empty 0 -8 0 10
-203904 -1 -1 1 256;
#X obj 20 20 cnv 10 42 42 empty empty empty 5 20 1 30 -1 -66577 0;
#X obj 21 21 cnv 10 41 40 empty empty \$1 5 20 1 30 -233017 -1 0;
#X obj 42 89 r equalizer-reset;
#X msg 42 111 1;
#X obj 19 212 s \$1-r;
#X obj 62 212 s \$1-g;
#X obj 105 212 s \$1-b;
#X obj 216 108 r \$1-r;
#X obj 259 108 r \$1-g;
#X obj 302 108 r \$1-b;
#X obj 216 178 list prepend \$1-r;
#X obj 259 154 list prepend \$1-g;
#X obj 302 133 list prepend \$1-b;
#X obj 216 222 s write-config;
#X connect 8 0 9 0;
#X connect 9 0 10 0;
#X connect 9 0 11 0;
#X connect 9 0 12 0;
#X connect 13 0 16 0;
#X connect 14 0 17 0;
#X connect 15 0 18 0;
#X connect 16 0 19 0;
#X connect 17 0 19 0;
#X connect 18 0 19 0;
#X coords 0 -1 1 1 402 42 2 20 20;
