#N canvas 563 167 628 486 10;
#X obj 5 31 inlet;
#X obj 97 42 inlet;
#X obj 5 423 outlet;
#X obj 114 302 tabread \$1last;
#X text 351 21 Error correction algorithm:;
#X text 349 51 take the maximum of the last 5 stored values;
#X obj 174 117 r err_buffer_pos;
#X obj 159 147 f;
#X msg 114 89 5;
#X obj 114 144 until;
#X obj 114 111 t a b;
#X obj 114 176 f;
#X obj 114 222 t a a;
#X obj 173 207 - 1;
#X obj 114 198 mod 5;
#X obj 114 247 * 12;
#X obj 114 271 +;
#X obj 97 64 t b b a b;
#X obj 114 342 max;
#X obj 114 364 t a a;
#X msg 253 293 0;
#X obj 5 392 max;
#X connect 0 0 21 0;
#X connect 1 0 17 0;
#X connect 3 0 18 0;
#X connect 6 0 7 1;
#X connect 7 0 11 1;
#X connect 8 0 10 0;
#X connect 9 0 11 0;
#X connect 10 0 9 0;
#X connect 10 1 7 0;
#X connect 11 0 14 0;
#X connect 12 0 15 0;
#X connect 12 1 13 0;
#X connect 13 0 11 1;
#X connect 14 0 12 0;
#X connect 15 0 16 0;
#X connect 16 0 3 0;
#X connect 17 1 8 0;
#X connect 17 2 16 1;
#X connect 17 3 20 0;
#X connect 18 0 19 0;
#X connect 19 0 21 1;
#X connect 19 1 18 1;
#X connect 20 0 18 1;
#X connect 21 0 2 0;
