#N canvas 0 44 333 334 10;
#X obj 5 31 inlet;
#X obj 231 35 inlet;
#X obj 79 298 outlet;
#X obj 5 90 moses 0.1;
#X obj 5 112 t b a;
#X obj 5 134 f;
#X obj 5 181 moses 0.2;
#X obj 5 205 b;
#X obj 5 231 f;
#X obj 5 157 tabread \$1;
#X connect 0 0 3 0;
#X connect 1 0 5 1;
#X connect 3 0 4 0;
#X connect 3 1 2 0;
#X connect 4 0 5 0;
#X connect 4 1 8 1;
#X connect 5 0 9 0;
#X connect 6 0 7 0;
#X connect 6 1 2 0;
#X connect 7 0 8 0;
#X connect 8 0 2 0;
#X connect 9 0 6 0;
