#N canvas 346 203 656 401 10;
#X obj 5 31 inlet;
#X obj 231 35 inlet;
#X obj 79 348 outlet;
#X obj 5 90 moses 0.1;
#X obj 5 112 t b a;
#X obj 5 134 f;
#X obj 5 251 moses 0.2;
#X obj 5 275 b;
#X obj 5 301 f;
#X obj 5 203 tabread \$1last;
#X obj 5 156 t a a;
#X obj 32 181 tabread \$1lastlast;
#X obj 5 227 max;
#X text 246 74 Error correction algorithm:;
#X text 244 104 If value drops below treshold \, check if we had previously
a significantly higher value. If so \, it might be a drop-out and it
is replaced by maximum of the two previous values.;
#X connect 0 0 3 0;
#X connect 1 0 5 1;
#X connect 3 0 4 0;
#X connect 3 1 2 0;
#X connect 4 0 5 0;
#X connect 4 1 8 1;
#X connect 5 0 10 0;
#X connect 6 0 7 0;
#X connect 6 1 2 0;
#X connect 7 0 8 0;
#X connect 8 0 2 0;
#X connect 9 0 12 0;
#X connect 10 0 9 0;
#X connect 10 1 11 0;
#X connect 11 0 12 1;
#X connect 12 0 6 0;
