#N canvas 346 203 656 401 10;
#X obj 5 31 inlet;
#X obj 97 42 inlet;
#X obj 5 327 outlet;
#X obj 97 125 tabread \$1last;
#X text 246 74 Error correction algorithm:;
#X obj 97 147 * 0.9;
#X obj 5 165 * 0.1;
#X obj 5 198 +;
#X obj 97 79 t a a;
#X obj 37 276 tabwrite \$1last;
#X obj 5 220 t a a;
#X text 244 104 recursive low pass filter. current and last value are
weighed and the result is written to memory. This filter only allows
for smooth changes;
#X connect 0 0 6 0;
#X connect 1 0 8 0;
#X connect 3 0 5 0;
#X connect 5 0 7 1;
#X connect 6 0 7 0;
#X connect 7 0 10 0;
#X connect 8 0 3 0;
#X connect 8 1 9 1;
#X connect 10 0 2 0;
#X connect 10 1 9 0;
