#N canvas 346 203 656 401 10;
#X obj 5 31 inlet;
#X obj 97 42 inlet;
#X obj 5 327 outlet;
#X obj 97 125 tabread \$1last;
#X text 246 74 Error correction algorithm:;
#X text 244 104 If value drops below treshold \, check if we had previously
a significantly higher value. If so \, it might be a drop-out and it
is replaced by maximum of the two previous values.;
#X obj 97 147 * 0.9;
#X obj 5 165 * 0.1;
#X obj 5 198 +;
#X obj 97 79 t a a;
#X obj 37 276 tabwrite \$1last;
#X obj 5 220 t a a;
#X connect 0 0 7 0;
#X connect 1 0 9 0;
#X connect 3 0 6 0;
#X connect 6 0 8 1;
#X connect 7 0 8 0;
#X connect 8 0 11 0;
#X connect 9 0 3 0;
#X connect 9 1 10 1;
#X connect 11 0 2 0;
#X connect 11 1 10 0;
