#N canvas 563 167 628 486 10;
#X obj 5 31 inlet;
#X obj 80 24 inlet;
#X obj 5 423 outlet;
#X obj 97 284 tabread \$1last;
#X text 299 42 Error correction algorithm:;
#X text 297 72 take the maximum of the last 5 stored values;
#X obj 97 121 until;
#X obj 97 93 t a b;
#X obj 80 46 t b b a b;
#X obj 97 324 max;
#X obj 97 346 t a a;
#X msg 234 281 0;
#X obj 5 388 max;
#X msg 137 123 0;
#X obj 97 150 f;
#X obj 133 152 + 1;
#X obj 97 184 * 12;
#X obj 97 206 +;
#X obj 194 140 t a;
#X obj 179 45 r consider-window;
#X obj 97 70 f;
#X connect 0 0 12 0;
#X connect 1 0 8 0;
#X connect 3 0 9 0;
#X connect 6 0 14 0;
#X connect 7 0 6 0;
#X connect 7 1 13 0;
#X connect 8 1 20 0;
#X connect 8 2 18 0;
#X connect 8 3 11 0;
#X connect 9 0 10 0;
#X connect 10 0 12 1;
#X connect 10 1 9 1;
#X connect 11 0 9 1;
#X connect 12 0 2 0;
#X connect 13 0 14 1;
#X connect 14 0 15 0;
#X connect 14 0 16 0;
#X connect 15 0 14 1;
#X connect 16 0 17 0;
#X connect 17 0 3 0;
#X connect 18 0 17 1;
#X connect 19 0 20 1;
#X connect 20 0 7 0;
