#N canvas 307 44 556 571 10;
#X obj 25 156 r \$0.button;
#X obj 298 77 metro 1000;
#X obj 298 205 s \$0.time;
#X msg 298 55 1;
#X obj 298 35 t b b;
#X obj 298 103 f;
#X obj 339 105 + 1;
#X msg 424 79 0;
#X obj 298 157 makefilename %4ds;
#X msg 298 182 label \$1;
#X msg 451 73 label empty;
#X obj 98 473 r \$0.readsf~;
#X obj 154 532 s \$0.eof;
#X obj 25 182 openpanel;
#X obj 64 308 s \$0.readsf~;
#X obj 346 489 r \$0.eof;
#X obj 346 533 s \$0.toggle.r;
#X msg 25 377 1;
#X obj 25 400 s \$0.loaded;
#X obj 25 205 t b a a;
#X msg 44 332 label \$1;
#X obj 64 229 symbol;
#X obj 77 205 r \$0.reload;
#X obj 44 353 s \$0.button.r;
#X obj 198 268 list prepend 0;
#X obj 279 245 r \$0.loaded;
#X obj 198 297 route 0 1;
#X msg 198 427 set 0;
#X obj 198 449 s \$0.toggle.r;
#X obj 198 337 sel 1;
#X obj 198 359 t b b;
#X obj 225 389 s \$0.button.r;
#X obj 424 51 t b b;
#X obj 360 316 t a a;
#X msg 346 511 0;
#X obj 360 370 sel 1 0;
#X obj 387 345 s \$0.readsf~;
#X obj 379 394 s \$0.reload;
#X obj 198 228 r \$0.toggle;
#X obj 98 532 outlet~;
#X obj 98 499 readsf~ 1;
#X obj 33 20 cnv 13 200 24 empty empty empty 80 7 0 10 -1 -66577 0
;
#X obj 33 21 cnv 11 199 11 empty empty empty 4 7 0 10 -233017 -66577
0;
#X obj 20 20 bng 12 250 50 0 \$0.button \$0.button.r empty 20 7 0 10
-261234 -1 -1;
#X obj 81 113 samplerate~;
#X obj 32 104 *;
#X obj 81 86 loadbang;
#X obj 64 251 list append 0;
#X msg 64 286 open \$1 \$2;
#X obj 326 56 f;
#X obj 32 69 t a a;
#X obj 33 32 cnv 11 199 11 empty \$0.time empty 160 7 0 10 -233017
-66577 0;
#X obj 20 32 tgl 12 0 \$0.toggle \$0.toggle.r empty 17 7 0 10 -204786
-1 -1 0 1;
#X obj 298 131 int;
#X obj 32 32 nbx 5 12 -1e+37 1e+37 0 0 empty empty empty 0 -8 0 10
-262144 -1 -1 851 256;
#X text 85 31 startpos;
#X obj 102 155 t b a;
#X obj 102 177 del 500;
#X msg 265 355 label empty;
#X connect 0 0 13 0;
#X connect 1 0 5 0;
#X connect 3 0 1 0;
#X connect 4 0 3 0;
#X connect 4 1 49 0;
#X connect 5 0 6 0;
#X connect 5 0 53 0;
#X connect 6 0 5 1;
#X connect 7 0 1 0;
#X connect 8 0 9 0;
#X connect 9 0 2 0;
#X connect 10 0 2 0;
#X connect 11 0 40 0;
#X connect 13 0 19 0;
#X connect 15 0 34 0;
#X connect 17 0 18 0;
#X connect 19 0 17 0;
#X connect 19 1 20 0;
#X connect 19 2 21 0;
#X connect 20 0 23 0;
#X connect 21 0 47 0;
#X connect 22 0 21 0;
#X connect 24 0 26 0;
#X connect 25 0 24 1;
#X connect 26 0 29 0;
#X connect 26 1 33 0;
#X connect 27 0 28 0;
#X connect 29 0 30 0;
#X connect 30 0 27 0;
#X connect 30 1 31 0;
#X connect 32 0 7 0;
#X connect 32 1 10 0;
#X connect 33 0 35 0;
#X connect 33 1 36 0;
#X connect 34 0 16 0;
#X connect 35 0 4 0;
#X connect 35 1 32 0;
#X connect 35 1 37 0;
#X connect 38 0 24 0;
#X connect 40 0 39 0;
#X connect 40 1 12 0;
#X connect 44 0 45 1;
#X connect 45 0 56 0;
#X connect 46 0 44 0;
#X connect 47 0 48 0;
#X connect 48 0 14 0;
#X connect 49 0 5 1;
#X connect 50 0 45 0;
#X connect 50 1 49 1;
#X connect 53 0 8 0;
#X connect 54 0 50 0;
#X connect 56 0 57 0;
#X connect 56 1 47 1;
#X connect 57 0 21 0;
#X connect 58 0 31 0;
#X coords 0 -1 1 1 213 24 2 20 20;
