#N canvas 307 44 556 571 10;
#X obj 31 93 r \$0.button;
#X obj 297 54 metro 1000;
#X obj 297 158 s \$0.time;
#X msg 297 32 1;
#X obj 297 12 t b b;
#X obj 297 80 f;
#X obj 338 82 + 1;
#X msg 325 33 0;
#X msg 424 79 0;
#X obj 297 106 makefilename %4ds;
#X msg 297 129 label \$1;
#X msg 451 73 label empty;
#X obj 20 32 tgl 12 0 \$0.toggle \$0.toggle.r empty 17 7 0 10 -204786
-1 -1 0 1;
#X obj 98 473 r \$0.readsf~;
#X obj 154 532 s \$0.eof;
#X obj 31 119 openpanel;
#X msg 70 193 open \$1;
#X obj 70 215 s \$0.readsf~;
#X obj 346 489 r \$0.eof;
#X obj 346 533 s \$0.toggle.r;
#X msg 31 284 1;
#X obj 31 307 s \$0.loaded;
#X obj 31 142 t b a a;
#X msg 50 239 label \$1;
#X obj 70 166 symbol;
#X obj 83 142 r \$0.reload;
#X obj 50 260 s \$0.button.r;
#X obj 198 238 list prepend 0;
#X obj 279 215 r \$0.loaded;
#X obj 198 267 route 0 1;
#X msg 198 397 set 0;
#X obj 198 419 s \$0.toggle.r;
#X obj 198 307 sel 1;
#X obj 198 329 t b b;
#X obj 225 359 s \$0.button.r;
#X obj 424 51 t b b;
#X obj 360 316 t a a;
#X msg 346 511 0;
#X obj 360 370 sel 1 0;
#X obj 387 345 s \$0.readsf~;
#X obj 379 394 s \$0.reload;
#X obj 198 198 r \$0.toggle;
#X obj 98 532 outlet~;
#X obj 98 499 readsf~ 1;
#X obj 33 20 cnv 13 200 24 empty empty empty 80 7 0 10 -1 -66577 0
;
#X obj 33 21 cnv 11 199 11 empty empty empty 4 7 0 10 -233017 -66577
0;
#X obj 33 32 cnv 11 199 11 empty \$0.time empty 160 7 0 10 -233017
-66577 0;
#X obj 20 20 bng 12 250 50 0 \$0.button \$0.button.r empty 20 7 0 10
-261234 -1 -1;
#X connect 0 0 15 0;
#X connect 1 0 5 0;
#X connect 3 0 1 0;
#X connect 4 0 3 0;
#X connect 4 1 7 0;
#X connect 5 0 6 0;
#X connect 5 0 9 0;
#X connect 6 0 5 1;
#X connect 7 0 5 1;
#X connect 8 0 1 0;
#X connect 9 0 10 0;
#X connect 10 0 2 0;
#X connect 11 0 2 0;
#X connect 13 0 43 0;
#X connect 15 0 22 0;
#X connect 16 0 17 0;
#X connect 18 0 37 0;
#X connect 20 0 21 0;
#X connect 22 0 20 0;
#X connect 22 1 23 0;
#X connect 22 2 24 0;
#X connect 23 0 26 0;
#X connect 24 0 16 0;
#X connect 25 0 24 0;
#X connect 27 0 29 0;
#X connect 28 0 27 1;
#X connect 29 0 32 0;
#X connect 29 1 36 0;
#X connect 30 0 31 0;
#X connect 32 0 33 0;
#X connect 33 0 30 0;
#X connect 33 1 34 0;
#X connect 35 0 8 0;
#X connect 35 1 11 0;
#X connect 36 0 38 0;
#X connect 36 1 39 0;
#X connect 37 0 19 0;
#X connect 38 0 4 0;
#X connect 38 1 35 0;
#X connect 38 1 40 0;
#X connect 41 0 27 0;
#X connect 43 0 42 0;
#X connect 43 1 14 0;
#X coords 0 -1 1 1 213 24 2 20 20;
