#N canvas 366 44 499 543 10;
#X obj 17 44 gemhead;
#N canvas 380 77 667 565 gemwin 0;
#X msg 94 447 destroy;
#X obj 15 100 sel 1 0;
#X obj 15 40 inlet;
#X obj 15 487 gemwin 50;
#N canvas 0 128 281 217 close_window_with_escape 0;
#X obj 16 13 gemkeyname;
#X msg 73 68 1;
#X obj 16 49 sel 1;
#X obj 16 93 f;
#X obj 16 115 sel 1;
#X msg 118 68 0;
#X msg 16 137 0;
#X obj 16 167 outlet;
#X obj 86 14 keyname;
#X obj 73 46 select q;
#X connect 0 0 2 0;
#X connect 0 1 9 0;
#X connect 1 0 3 1;
#X connect 2 0 3 0;
#X connect 3 0 4 0;
#X connect 4 0 6 0;
#X connect 5 0 3 1;
#X connect 6 0 7 0;
#X connect 8 0 2 0;
#X connect 8 1 9 0;
#X connect 9 0 1 0;
#X connect 9 1 5 0;
#X restore 324 31 pd close_window_with_escape;
#N canvas 818 301 373 380 load_config 0;
#X obj 89 84 text define config;
#X obj 62 18 loadbang;
#X msg 89 62 read -c ../configuration.txt;
#X obj 62 40 t b b;
#X msg 62 104 list [ CONFIG ];
#X obj 62 126 text search config;
#X obj 62 168 t b a;
#X obj 62 190 until;
#X obj 62 212 f;
#X obj 94 213 + 1;
#X obj 62 247 text get config;
#X obj 149 273 sel 2;
#X obj 62 269 list trim;
#X obj 62 291 route # [;
#X obj 62 148 + 1;
#X obj 113 324 outlet;
#X obj 170 208 t b b;
#X obj 125 17 inlet;
#X connect 1 0 3 0;
#X connect 2 0 0 0;
#X connect 3 0 4 0;
#X connect 3 1 2 0;
#X connect 4 0 5 0;
#X connect 5 0 14 0;
#X connect 6 0 7 0;
#X connect 6 1 8 1;
#X connect 7 0 8 0;
#X connect 8 0 9 0;
#X connect 8 0 10 0;
#X connect 9 0 8 1;
#X connect 10 0 12 0;
#X connect 10 1 11 0;
#X connect 11 0 16 0;
#X connect 12 0 13 0;
#X connect 13 1 16 0;
#X connect 13 2 15 0;
#X connect 14 0 6 0;
#X connect 16 0 7 1;
#X connect 17 0 3 0;
#X restore 136 68 pd load_config;
#X obj 324 61 s gemwin.switch;
#X obj 226 148 unpack;
#X obj 163 228 f;
#X obj 136 90 t b a;
#X obj 136 112 del 0;
#X obj 15 363 list append;
#X obj 136 14 inlet;
#X obj 324 151 unpack f f;
#X obj 136 134 t b b;
#X obj 136 156 f;
#X obj 136 178 moses 1;
#X obj 175 200 s gemwin.switch;
#X obj 373 351 route rgain ggain bgain;
#X obj 373 378 s rgain;
#X obj 424 378 s ggain;
#X obj 474 378 s bgain;
#X obj 396 420 route gradients;
#X obj 396 442 s gradients;
#X obj 177 113 route autostart displayresolution fullscreen offset
cursor menubar border;
#X obj 163 376 pack f f f f f f f f;
#X msg 15 408 menubar \$7 \, border \$8 \, dimen \$1 \$2 \, offset
\$4 \$5 \, cursor \$6 \, fullscreen \$3 \, create \, 1;
#X connect 0 0 3 0;
#X connect 1 0 11 0;
#X connect 1 1 0 0;
#X connect 2 0 1 0;
#X connect 4 0 6 0;
#X connect 5 0 9 0;
#X connect 7 0 8 1;
#X connect 7 1 25 1;
#X connect 8 0 25 0;
#X connect 9 0 10 0;
#X connect 9 1 24 0;
#X connect 10 0 14 0;
#X connect 11 0 26 0;
#X connect 12 0 5 0;
#X connect 13 0 25 3;
#X connect 13 1 25 4;
#X connect 14 0 15 0;
#X connect 14 1 8 0;
#X connect 15 0 16 0;
#X connect 16 1 17 0;
#X connect 18 0 19 0;
#X connect 18 1 20 0;
#X connect 18 2 21 0;
#X connect 18 3 22 0;
#X connect 22 0 23 0;
#X connect 24 0 15 1;
#X connect 24 1 7 0;
#X connect 24 2 25 2;
#X connect 24 3 13 0;
#X connect 24 4 25 5;
#X connect 24 5 25 6;
#X connect 24 6 25 7;
#X connect 24 7 18 0;
#X connect 25 0 11 1;
#X connect 26 0 3 0;
#X restore 300 34 pd gemwin;
#X obj 104 76 GLdefine GL_SMOOTH;
#X obj 104 54 loadbang;
#X obj 17 98 GEMglShadeModel;
#X obj 17 322 gemlist;
#X obj 17 254 until;
#X obj 17 276 f;
#X obj 60 278 + 1;
#X msg 77 248 0;
#X obj 17 170 t b b a;
#X obj 133 158 t b a;
#X msg 133 180 4;
#X obj 133 255 * 2;
#X obj 17 212 f;
#X obj 87 394 *;
#X obj 297 86 loadbang;
#X msg 297 108 \; segments 11 \;;
#X obj 133 134 r segments;
#X obj 32 190 r segments;
#X obj 133 202 /;
#X obj 17 298 t b a a;
#X obj 185 303 t a a a;
#X obj 185 366 tabread r;
#X obj 204 346 tabread g;
#X obj 224 326 tabread b;
#X obj 185 458 pack f f f;
#N canvas 199 130 523 490 segment 0;
#X obj 25 26 inlet;
#X obj 233 37 inlet;
#X obj 25 432 GEMglEnd;
#X obj 82 48 loadbang;
#X obj 82 70 GLdefine GL_POLYGON;
#X obj 25 93 GEMglBegin;
#X obj 189 141 t a a;
#X obj 216 243 +;
#X msg 298 215 4;
#X obj 298 239 * 2;
#X obj 298 261 / 12;
#X obj 298 170 r segments;
#X obj 298 192 t b a;
#X obj 230 210 t b a;
#X obj 336 38 inlet;
#X obj 25 154 GEMglColor3f 1 0 0;
#X obj 67 128 unpack f f f;
#X obj 102 289 unpack f f f;
#X obj 64 314 GEMglColor3f 0 0 0;
#X obj 428 38 inlet;
#X obj 25 348 GEMglVertex2f 14 0;
#X obj 25 373 GEMglVertex2f -14 0;
#X obj 25 186 GEMglVertex2f -14 0;
#X obj 25 208 GEMglVertex2f 14 0;
#N canvas 0 212 252 298 gate 0;
#X obj 13 19 inlet;
#X obj 80 20 inlet;
#X obj 13 234 outlet;
#X obj 80 233 outlet;
#X obj 80 87 t a a;
#X obj 58 109 == 0;
#X obj 13 134 spigot 0;
#X obj 80 136 spigot 1;
#X connect 0 0 6 0;
#X connect 0 0 7 0;
#X connect 1 0 4 0;
#X connect 4 0 5 0;
#X connect 4 1 7 1;
#X connect 5 0 6 1;
#X connect 6 0 2 0;
#X connect 7 0 3 0;
#X restore 25 260 pd gate;
#X obj 64 231 r gradients;
#X connect 0 0 5 0;
#X connect 1 0 6 0;
#X connect 3 0 4 0;
#X connect 4 0 5 1;
#X connect 5 0 15 0;
#X connect 6 0 22 2;
#X connect 6 0 23 2;
#X connect 6 1 7 0;
#X connect 7 0 20 2;
#X connect 7 0 21 2;
#X connect 8 0 9 0;
#X connect 9 0 10 0;
#X connect 10 0 13 0;
#X connect 11 0 12 0;
#X connect 12 0 8 0;
#X connect 12 1 10 1;
#X connect 13 0 7 0;
#X connect 13 1 7 1;
#X connect 14 0 16 0;
#X connect 15 0 22 0;
#X connect 16 0 15 1;
#X connect 16 1 15 2;
#X connect 16 2 15 3;
#X connect 17 0 18 1;
#X connect 17 1 18 2;
#X connect 17 2 18 3;
#X connect 18 0 20 0;
#X connect 19 0 17 0;
#X connect 20 0 21 0;
#X connect 21 0 2 0;
#X connect 22 0 23 0;
#X connect 23 0 24 0;
#X connect 24 0 20 0;
#X connect 24 1 18 0;
#X connect 25 0 24 1;
#X restore 17 499 pd segment _____________;
#X obj 300 306 t a a a;
#X obj 300 369 tabread r;
#X obj 319 349 tabread g;
#X obj 339 329 tabread b;
#X obj 300 282 + 1;
#X obj 87 416 - 4;
#X obj 300 11 inlet;
#X obj 351 9 inlet;
#X obj 185 431 *;
#X obj 213 431 *;
#X obj 242 431 *;
#X obj 300 458 pack f f f;
#X obj 300 431 *;
#X obj 328 431 *;
#X obj 357 431 *;
#X obj 403 352 r rgain;
#X obj 416 374 r ggain;
#X obj 426 398 r bgain;
#X obj 17 234 + 1;
#X obj 87 443 - 0;
#X obj 133 224 t a a;
#X obj 167 255 f;
#X obj 185 197 r gradients;
#X obj 185 219 sel 0 1;
#X msg 196 254 0;
#X connect 0 0 4 0;
#X connect 2 0 4 1;
#X connect 3 0 2 0;
#X connect 4 0 10 0;
#X connect 5 0 27 0;
#X connect 6 0 7 0;
#X connect 7 0 8 0;
#X connect 7 0 21 0;
#X connect 8 0 7 1;
#X connect 9 0 7 1;
#X connect 10 0 14 0;
#X connect 10 1 9 0;
#X connect 10 2 5 1;
#X connect 11 0 12 0;
#X connect 11 1 20 1;
#X connect 12 0 20 0;
#X connect 13 0 15 1;
#X connect 14 0 46 0;
#X connect 15 0 33 0;
#X connect 16 0 17 0;
#X connect 18 0 11 0;
#X connect 19 0 14 1;
#X connect 20 0 48 0;
#X connect 21 0 5 0;
#X connect 21 1 15 0;
#X connect 21 2 22 0;
#X connect 21 2 32 0;
#X connect 22 0 23 0;
#X connect 22 1 24 0;
#X connect 22 2 25 0;
#X connect 23 0 36 0;
#X connect 24 0 37 0;
#X connect 25 0 38 0;
#X connect 26 0 27 2;
#X connect 28 0 29 0;
#X connect 28 1 30 0;
#X connect 28 2 31 0;
#X connect 29 0 40 0;
#X connect 30 0 41 0;
#X connect 31 0 42 0;
#X connect 32 0 28 0;
#X connect 33 0 47 0;
#X connect 34 0 1 0;
#X connect 35 0 1 1;
#X connect 36 0 26 0;
#X connect 37 0 26 1;
#X connect 38 0 26 2;
#X connect 39 0 27 3;
#X connect 40 0 39 0;
#X connect 41 0 39 1;
#X connect 42 0 39 2;
#X connect 43 0 36 1;
#X connect 43 0 40 1;
#X connect 44 0 37 1;
#X connect 44 0 41 1;
#X connect 45 0 38 1;
#X connect 45 0 42 1;
#X connect 46 0 6 0;
#X connect 47 0 27 1;
#X connect 48 0 13 0;
#X connect 48 1 49 1;
#X connect 49 0 47 1;
#X connect 50 0 51 0;
#X connect 51 0 49 0;
#X connect 51 1 52 0;
#X connect 52 0 47 1;
