#N canvas 286 167 454 430 10;
#N canvas 380 77 667 565 gemwin 0;
#X msg 94 447 destroy;
#X obj 15 100 sel 1 0;
#X obj 15 40 inlet;
#N canvas 0 128 281 217 close_window_with_escape 0;
#X obj 16 13 gemkeyname;
#X msg 73 68 1;
#X obj 16 49 sel 1;
#X obj 16 93 f;
#X obj 16 115 sel 1;
#X msg 118 68 0;
#X msg 16 137 0;
#X obj 16 167 outlet;
#X obj 86 14 keyname;
#X obj 73 46 select q;
#X connect 0 0 2 0;
#X connect 0 1 9 0;
#X connect 1 0 3 1;
#X connect 2 0 3 0;
#X connect 3 0 4 0;
#X connect 4 0 6 0;
#X connect 5 0 3 1;
#X connect 6 0 7 0;
#X connect 8 0 2 0;
#X connect 8 1 9 0;
#X connect 9 0 1 0;
#X connect 9 1 5 0;
#X restore 324 31 pd close_window_with_escape;
#N canvas 818 301 330 308 load_config 0;
#X msg 12 45 list [ CONFIG ];
#X obj 12 67 text search config;
#X obj 12 109 t b a;
#X obj 12 131 until;
#X obj 12 153 f;
#X obj 44 154 + 1;
#X obj 12 188 text get config;
#X obj 99 214 sel 2;
#X obj 12 210 list trim;
#X obj 12 232 route # [;
#X obj 12 89 + 1;
#X obj 63 265 outlet;
#X obj 120 149 t b b;
#X obj 12 10 r config-ready;
#X connect 0 0 1 0;
#X connect 1 0 10 0;
#X connect 2 0 3 0;
#X connect 2 1 4 1;
#X connect 3 0 4 0;
#X connect 4 0 5 0;
#X connect 4 0 6 0;
#X connect 5 0 4 1;
#X connect 6 0 8 0;
#X connect 6 1 7 0;
#X connect 7 0 12 0;
#X connect 8 0 9 0;
#X connect 9 1 12 0;
#X connect 9 2 11 0;
#X connect 10 0 2 0;
#X connect 12 0 3 1;
#X connect 13 0 0 0;
#X restore 136 68 pd load_config;
#X obj 324 61 s gemwin.switch;
#X obj 226 153 unpack;
#X obj 163 228 f;
#X obj 136 90 t b a;
#X obj 136 112 del 0;
#X obj 15 363 list append;
#X obj 324 151 unpack f f;
#X obj 136 134 t b b;
#X obj 136 156 f;
#X obj 136 178 moses 1;
#X obj 175 200 s gemwin.switch;
#X obj 373 351 route rgain ggain bgain;
#X obj 373 378 s rgain;
#X obj 424 378 s ggain;
#X obj 474 378 s bgain;
#X obj 163 376 pack f f f f f f f f;
#X msg 15 408 menubar \$7 \, border \$8 \, dimen \$1 \$2 \, offset
\$4 \$5 \, cursor \$6 \, fullscreen \$3 \, create \, 1;
#X obj 177 113 route autostart displayresolution fullscreen offset
cursor menubar border;
#X obj 494 442 s audioinput;
#X obj 396 420 route interpolation audioinput;
#X obj 396 442 s interpolation;
#X obj 15 487 gemwin 20;
#X connect 0 0 26 0;
#X connect 1 0 10 0;
#X connect 1 1 0 0;
#X connect 2 0 1 0;
#X connect 3 0 5 0;
#X connect 4 0 8 0;
#X connect 6 0 7 1;
#X connect 6 1 20 1;
#X connect 7 0 20 0;
#X connect 8 0 9 0;
#X connect 8 1 22 0;
#X connect 9 0 12 0;
#X connect 10 0 21 0;
#X connect 11 0 20 3;
#X connect 11 1 20 4;
#X connect 12 0 13 0;
#X connect 12 1 7 0;
#X connect 13 0 14 0;
#X connect 14 1 15 0;
#X connect 16 0 17 0;
#X connect 16 1 18 0;
#X connect 16 2 19 0;
#X connect 16 3 24 0;
#X connect 20 0 10 1;
#X connect 21 0 26 0;
#X connect 22 0 13 1;
#X connect 22 1 6 0;
#X connect 22 2 20 2;
#X connect 22 3 11 0;
#X connect 22 4 20 5;
#X connect 22 5 20 6;
#X connect 22 6 20 7;
#X connect 22 7 16 0;
#X connect 24 0 25 0;
#X connect 24 1 23 0;
#X restore 335 38 pd gemwin;
#X obj 335 15 inlet;
#N canvas 0 44 293 536 get_pixel_data 0;
#X obj 68 194 t a a a;
#X obj 68 257 tabread r;
#X obj 87 237 tabread g;
#X obj 107 217 tabread b;
#X obj 68 399 pack f f f;
#X obj 68 292 *;
#X obj 96 292 *;
#X obj 125 292 *;
#X obj 171 220 r rgain;
#X obj 184 242 r ggain;
#X obj 192 263 r bgain;
#X msg 68 56 12;
#X obj 68 78 t a a;
#X obj 68 100 until;
#X obj 68 122 f;
#X obj 68 144 - 1;
#X obj 68 166 t a a;
#X obj 41 33 t b b;
#N canvas 0 44 340 193 msg 0;
#X obj 22 14 inlet;
#X msg 22 36;
#X obj 22 148 outlet;
#X connect 0 0 1 0;
#X connect 1 0 2 0;
#X restore 41 472 pd msg;
#X msg 41 442 bang \, set;
#X msg 68 421 add2 \$1 \$2 \$3;
#X obj 41 7 inlet;
#X obj 41 494 outlet;
#X obj 68 367 clip 0 1;
#X obj 96 345 clip 0 1;
#X obj 125 322 clip 0 1;
#X connect 0 0 1 0;
#X connect 0 1 2 0;
#X connect 0 2 3 0;
#X connect 1 0 5 0;
#X connect 2 0 6 0;
#X connect 3 0 7 0;
#X connect 4 0 20 0;
#X connect 5 0 23 0;
#X connect 6 0 24 0;
#X connect 7 0 25 0;
#X connect 8 0 5 1;
#X connect 9 0 6 1;
#X connect 10 0 7 1;
#X connect 11 0 12 0;
#X connect 12 0 13 0;
#X connect 12 1 14 1;
#X connect 13 0 14 0;
#X connect 14 0 15 0;
#X connect 15 0 16 0;
#X connect 16 0 0 0;
#X connect 16 1 14 1;
#X connect 17 0 19 0;
#X connect 17 1 11 0;
#X connect 18 0 22 0;
#X connect 19 0 18 0;
#X connect 20 0 18 0;
#X connect 21 0 17 0;
#X connect 23 0 4 0;
#X connect 24 0 4 1;
#X connect 25 0 4 2;
#X restore 199 163 pd get_pixel_data;
#X obj 199 136 r refreshdisplay;
#X obj 17 338 pix_texture;
#X obj 98 137 loadbang;
#X obj 17 222 pix_set;
#X msg 98 160 set 1 12 \, RGB;
#X obj 17 381 rectangle 12 4;
#X obj 17 52 gemhead;
#X obj 17 89 _glsl bicubic_interpolation;
#X obj 146 52 gemhead;
#X msg 156 289 quality \$1;
#X obj 156 270 tgl 15 0 empty empty empty 17 7 0 10 -262144 -1 -1 0
1;
#X msg 50 284 rectangle 1;
#X obj 50 263 loadbang;
#X obj 17 12 r interpolation;
#X obj 146 13 r interpolation;
#X obj 156 230 r interpolation;
#X obj 17 32 == 2;
#X obj 146 33 != 2;
#X obj 156 250 != 0;
#X connect 1 0 0 0;
#X connect 2 0 6 1;
#X connect 3 0 2 0;
#X connect 4 0 8 0;
#X connect 5 0 7 0;
#X connect 6 0 4 0;
#X connect 7 0 6 0;
#X connect 9 0 10 0;
#X connect 10 0 6 0;
#X connect 11 0 6 0;
#X connect 12 0 4 0;
#X connect 13 0 12 0;
#X connect 14 0 4 0;
#X connect 15 0 14 0;
#X connect 16 0 19 0;
#X connect 17 0 20 0;
#X connect 18 0 21 0;
#X connect 19 0 9 0;
#X connect 20 0 11 0;
#X connect 21 0 13 0;
