#N canvas 286 167 562 445 10;
#N canvas 380 77 667 565 gemwin 0;
#X msg 94 447 destroy;
#X obj 15 100 sel 1 0;
#X obj 15 40 inlet;
#N canvas 0 128 281 217 close_window_with_escape 0;
#X obj 16 13 gemkeyname;
#X msg 73 68 1;
#X obj 16 49 sel 1;
#X obj 16 93 f;
#X obj 16 115 sel 1;
#X msg 118 68 0;
#X msg 16 137 0;
#X obj 16 167 outlet;
#X obj 86 14 keyname;
#X obj 73 46 select q;
#X connect 0 0 2 0;
#X connect 0 1 9 0;
#X connect 1 0 3 1;
#X connect 2 0 3 0;
#X connect 3 0 4 0;
#X connect 4 0 6 0;
#X connect 5 0 3 1;
#X connect 6 0 7 0;
#X connect 8 0 2 0;
#X connect 8 1 9 0;
#X connect 9 0 1 0;
#X connect 9 1 5 0;
#X restore 324 31 pd close_window_with_escape;
#N canvas 818 301 330 308 load_config 0;
#X msg 12 45 list [ CONFIG ];
#X obj 12 67 text search config;
#X obj 12 109 t b a;
#X obj 12 131 until;
#X obj 12 153 f;
#X obj 44 154 + 1;
#X obj 12 188 text get config;
#X obj 99 214 sel 2;
#X obj 12 210 list trim;
#X obj 12 232 route # [;
#X obj 12 89 + 1;
#X obj 63 265 outlet;
#X obj 120 149 t b b;
#X obj 12 10 r config-ready;
#X connect 0 0 1 0;
#X connect 1 0 10 0;
#X connect 2 0 3 0;
#X connect 2 1 4 1;
#X connect 3 0 4 0;
#X connect 4 0 5 0;
#X connect 4 0 6 0;
#X connect 5 0 4 1;
#X connect 6 0 8 0;
#X connect 6 1 7 0;
#X connect 7 0 12 0;
#X connect 8 0 9 0;
#X connect 9 1 12 0;
#X connect 9 2 11 0;
#X connect 10 0 2 0;
#X connect 12 0 3 1;
#X connect 13 0 0 0;
#X restore 136 68 pd load_config;
#X obj 324 61 s gemwin.switch;
#X obj 226 153 unpack;
#X obj 163 228 f;
#X obj 136 90 t b a;
#X obj 136 112 del 0;
#X obj 15 363 list append;
#X obj 324 151 unpack f f;
#X obj 136 134 t b b;
#X obj 136 156 f;
#X obj 136 178 moses 1;
#X obj 175 200 s gemwin.switch;
#X obj 373 351 route rgain ggain bgain;
#X obj 373 378 s rgain;
#X obj 424 378 s ggain;
#X obj 474 378 s bgain;
#X obj 163 376 pack f f f f f f f f;
#X msg 15 408 menubar \$7 \, border \$8 \, dimen \$1 \$2 \, offset
\$4 \$5 \, cursor \$6 \, fullscreen \$3 \, create \, 1;
#X obj 177 113 route autostart displayresolution fullscreen offset
cursor menubar border;
#X obj 467 461 s audioinput;
#X obj 396 481 s interpolation;
#X obj 15 487 gemwin 20;
#X obj 396 420 route interpolation audioinput curve;
#X obj 538 441 s curve;
#X connect 0 0 25 0;
#X connect 1 0 10 0;
#X connect 1 1 0 0;
#X connect 2 0 1 0;
#X connect 3 0 5 0;
#X connect 4 0 8 0;
#X connect 6 0 7 1;
#X connect 6 1 20 1;
#X connect 7 0 20 0;
#X connect 8 0 9 0;
#X connect 8 1 22 0;
#X connect 9 0 12 0;
#X connect 10 0 21 0;
#X connect 11 0 20 3;
#X connect 11 1 20 4;
#X connect 12 0 13 0;
#X connect 12 1 7 0;
#X connect 13 0 14 0;
#X connect 14 1 15 0;
#X connect 16 0 17 0;
#X connect 16 1 18 0;
#X connect 16 2 19 0;
#X connect 16 3 26 0;
#X connect 20 0 10 1;
#X connect 21 0 25 0;
#X connect 22 0 13 1;
#X connect 22 1 6 0;
#X connect 22 2 20 2;
#X connect 22 3 11 0;
#X connect 22 4 20 5;
#X connect 22 5 20 6;
#X connect 22 6 20 7;
#X connect 22 7 16 0;
#X connect 26 0 24 0;
#X connect 26 1 23 0;
#X connect 26 2 27 0;
#X restore 335 38 pd gemwin;
#X obj 335 15 inlet;
#N canvas 0 72 624 482 get_pixel_data 0;
#N canvas 0 44 340 193 msg 0;
#X obj 22 14 inlet;
#X msg 22 36;
#X obj 22 148 outlet;
#X connect 0 0 1 0;
#X connect 1 0 2 0;
#X restore 41 411 pd msg;
#X msg 41 381 bang \, set;
#X msg 211 373 add2 \$1 \$2 \$3;
#X obj 41 7 inlet;
#X obj 41 433 outlet;
#N canvas 627 251 309 277 apply_equalizer 0;
#X obj 111 26 inlet;
#X obj 4 221 outlet;
#X obj 4 153 *;
#X obj 38 130 *;
#X obj 73 104 *;
#X obj 150 77 tabread eq-b;
#X obj 130 97 tabread eq-g;
#X obj 111 117 tabread eq-r;
#X obj 111 52 t a a a;
#X obj 4 28 inlet;
#X obj 4 50 unpack f f f;
#X obj 4 189 pack f f f;
#X connect 0 0 8 0;
#X connect 2 0 11 0;
#X connect 3 0 11 1;
#X connect 4 0 11 2;
#X connect 5 0 4 1;
#X connect 6 0 3 1;
#X connect 7 0 2 1;
#X connect 8 0 7 0;
#X connect 8 1 6 0;
#X connect 8 2 5 0;
#X connect 9 0 10 0;
#X connect 10 0 2 0;
#X connect 10 1 3 0;
#X connect 10 2 4 0;
#X connect 11 0 1 0;
#X restore 211 244 pd apply_equalizer;
#N canvas 609 178 244 237 read_colors 0;
#X obj 18 9 inlet;
#X obj 18 37 t a a a;
#X obj 18 100 tabread r;
#X obj 37 80 tabread g;
#X obj 57 60 tabread b;
#X obj 18 144 pack f f f;
#X obj 18 166 outlet;
#X connect 0 0 1 0;
#X connect 1 0 2 0;
#X connect 1 1 3 0;
#X connect 1 2 4 0;
#X connect 2 0 5 0;
#X connect 3 0 5 1;
#X connect 4 0 5 2;
#X connect 5 0 6 0;
#X restore 211 121 pd read_colors;
#N canvas 627 251 309 277 apply_gains 0;
#X obj 4 221 outlet;
#X obj 4 28 inlet;
#X obj 4 50 unpack f f f;
#X obj 4 189 pack f f f;
#X obj 4 163 *;
#X obj 38 162 *;
#X obj 73 161 *;
#X obj 19 80 r rgain;
#X obj 53 103 r ggain;
#X obj 88 135 r bgain;
#X connect 1 0 2 0;
#X connect 2 0 4 0;
#X connect 2 1 5 0;
#X connect 2 2 6 0;
#X connect 3 0 0 0;
#X connect 4 0 3 0;
#X connect 5 0 3 1;
#X connect 6 0 3 2;
#X connect 7 0 4 1;
#X connect 8 0 5 1;
#X connect 9 0 6 1;
#X restore 211 273 pd apply_gains;
#N canvas 459 140 444 420 outlevel_display 0;
#X obj 15 16 inlet;
#X obj 15 38 t a a;
#X obj 42 60 unpack f f f;
#X obj 15 250 outlet;
#X obj 240 84 inlet;
#X obj 240 106 t a;
#X obj 42 171 list prepend;
#X obj 42 193 s r.outlevel;
#X obj 76 129 list prepend;
#X obj 76 151 s g.outlevel;
#X obj 111 86 list prepend;
#X obj 111 108 s b.outlevel;
#X connect 0 0 1 0;
#X connect 1 0 3 0;
#X connect 1 1 2 0;
#X connect 2 0 6 0;
#X connect 2 1 8 0;
#X connect 2 2 10 0;
#X connect 4 0 5 0;
#X connect 5 0 10 1;
#X connect 5 0 8 1;
#X connect 5 0 6 1;
#X connect 6 0 7 0;
#X connect 8 0 9 0;
#X connect 10 0 11 0;
#X restore 211 306 pd outlevel_display;
#N canvas 686 137 450 300 apply_clipping 0;
#X obj 38 128 pack f f f;
#X obj 38 106 clip 0 1;
#X obj 72 85 clip 0 1;
#X obj 107 62 clip 0 1;
#X obj 38 15 inlet;
#X obj 38 37 unpack f f f;
#X obj 38 150 outlet;
#X connect 0 0 6 0;
#X connect 1 0 0 0;
#X connect 2 0 0 1;
#X connect 3 0 0 2;
#X connect 4 0 5 0;
#X connect 5 0 1 0;
#X connect 5 1 2 0;
#X connect 5 2 3 0;
#X restore 211 341 pd apply_clipping;
#N canvas 661 62 299 217 counter_11->0 0;
#X msg 22 41 12;
#X obj 22 63 t a a;
#X obj 22 85 until;
#X obj 22 107 f;
#X obj 22 129 - 1;
#X obj 22 151 t a a;
#X obj 22 173 outlet;
#X obj 22 19 inlet;
#X connect 0 0 1 0;
#X connect 1 0 2 0;
#X connect 1 1 3 1;
#X connect 2 0 3 0;
#X connect 3 0 4 0;
#X connect 4 0 5 0;
#X connect 5 0 6 0;
#X connect 5 1 3 1;
#X connect 7 0 0 0;
#X restore 211 66 pd counter_11->0;
#X obj 211 91 t a a, f 25;
#N canvas 661 62 299 217 counter_11->0 0;
#X msg 22 41 12;
#X obj 22 63 t a a;
#X obj 22 85 until;
#X obj 22 107 f;
#X obj 22 129 - 1;
#X obj 22 151 t a a;
#X obj 22 173 outlet;
#X obj 22 19 inlet;
#X connect 0 0 1 0;
#X connect 1 0 2 0;
#X connect 1 1 3 1;
#X connect 2 0 3 0;
#X connect 3 0 4 0;
#X connect 4 0 5 0;
#X connect 5 0 6 0;
#X connect 5 1 3 1;
#X connect 7 0 0 0;
#X restore 58 77 pd counter_11->0;
#X obj 41 33 t b b b b;
#N canvas 595 248 340 319 correction 0;
#X obj 16 13 inlet;
#X obj 16 261 outlet;
#X obj 16 35 unpack f f f;
#X obj 16 233 pack f f f;
#X obj 169 25 inlet;
#X obj 16 181 err-corr r;
#X obj 50 146 err-corr g;
#X obj 85 112 err-corr b;
#X connect 0 0 2 0;
#X connect 2 0 5 0;
#X connect 2 1 6 0;
#X connect 2 2 7 0;
#X connect 3 0 1 0;
#X connect 4 0 5 1;
#X connect 4 0 6 1;
#X connect 4 0 7 1;
#X connect 5 0 3 0;
#X connect 6 0 3 1;
#X connect 7 0 3 2;
#X restore 250 209 pd correction;
#N canvas 701 304 207 237 gate 0;
#X obj 18 16 inlet;
#X obj 131 14 inlet;
#X obj 18 192 outlet;
#X obj 86 196 outlet;
#X obj 18 105 spigot 1;
#X obj 86 105 spigot 0;
#X obj 63 81 ==;
#X connect 0 0 4 0;
#X connect 0 0 5 0;
#X connect 1 0 5 1;
#X connect 1 0 6 0;
#X connect 4 0 2 0;
#X connect 5 0 3 0;
#X connect 6 0 4 1;
#X restore 211 180 pd gate;
#X obj 250 148 r err-corr;
#X obj 401 69 table rlast 192;
#X obj 401 91 table glast 192;
#X obj 401 113 table blast 192;
#N canvas 777 78 464 368 copy_to_last 0;
#X obj 14 15 inlet;
#X obj 14 76 t a a a;
#X obj 14 37 t a a;
#X obj 170 85 t a;
#X obj 14 283 list prepend;
#X obj 33 201 list prepend;
#X obj 53 124 list prepend;
#X obj 257 17 inlet;
#X obj 257 78 f;
#X obj 257 100 mod 5;
#X obj 314 84 + 1;
#X obj 257 128 * 12;
#X obj 170 174 +;
#X obj 301 142 s err_buffer_pos;
#X obj 52 148 s blast;
#X obj 33 226 s glast;
#X obj 14 308 s rlast;
#X obj 53 99 tabread b;
#X obj 33 177 tabread g;
#X obj 14 255 tabread r;
#X obj 306 21 r consider-window;
#X connect 0 0 2 0;
#X connect 1 0 19 0;
#X connect 1 1 18 0;
#X connect 1 2 17 0;
#X connect 2 0 1 0;
#X connect 2 1 3 0;
#X connect 3 0 12 0;
#X connect 4 0 16 0;
#X connect 5 0 15 0;
#X connect 6 0 14 0;
#X connect 7 0 8 0;
#X connect 8 0 9 0;
#X connect 9 0 10 0;
#X connect 9 0 11 0;
#X connect 9 0 13 0;
#X connect 10 0 8 1;
#X connect 11 0 12 1;
#X connect 12 0 6 1;
#X connect 12 0 5 1;
#X connect 12 0 4 1;
#X connect 17 0 6 0;
#X connect 18 0 5 0;
#X connect 19 0 4 0;
#X connect 20 0 9 1;
#X restore 58 104 pd copy_to_last;
#X connect 0 0 4 0;
#X connect 1 0 0 0;
#X connect 2 0 0 0;
#X connect 3 0 13 0;
#X connect 5 0 7 0;
#X connect 6 0 15 0;
#X connect 7 0 8 0;
#X connect 8 0 9 0;
#X connect 9 0 2 0;
#X connect 10 0 11 0;
#X connect 11 0 6 0;
#X connect 11 1 5 1;
#X connect 11 1 8 1;
#X connect 11 1 14 1;
#X connect 12 0 20 0;
#X connect 13 0 1 0;
#X connect 13 1 12 0;
#X connect 13 2 10 0;
#X connect 13 3 20 1;
#X connect 14 0 5 0;
#X connect 15 0 5 0;
#X connect 15 1 14 0;
#X connect 16 0 15 1;
#X restore 199 163 pd get_pixel_data;
#X obj 199 136 r refreshdisplay;
#X obj 17 338 pix_texture;
#X obj 98 137 loadbang;
#X obj 17 222 pix_set;
#X msg 98 160 set 1 12 \, RGB;
#X obj 17 381 rectangle 12 4;
#X obj 17 52 gemhead;
#X obj 17 89 _glsl bicubic_interpolation;
#X obj 146 52 gemhead;
#X msg 156 289 quality \$1;
#X obj 156 270 tgl 15 0 empty empty empty 17 7 0 10 -262144 -1 -1 1
1;
#X msg 50 284 rectangle 1;
#X obj 50 263 loadbang;
#X obj 17 12 r interpolation;
#X obj 146 13 r interpolation;
#X obj 156 230 r interpolation;
#X obj 17 32 == 2;
#X obj 146 33 != 2;
#X obj 156 250 != 0;
#X obj 366 135 table eq-r 12;
#X obj 366 156 table eq-g 12;
#X obj 366 178 table eq-b 12;
#N canvas 391 105 367 501 eq-data-to-tables 0;
#X obj 37 9 r write-config;
#X obj 37 54 list fromsymbol;
#X obj 37 31 unpack s f;
#X obj 37 177 list split;
#X obj 37 76 t a a;
#X msg 64 99 \$2;
#X obj 64 121 sel 45;
#X msg 64 144 1;
#X obj 111 122 sel 45;
#X msg 111 145 2;
#X msg 111 100 \$3;
#X msg 154 202 \$2;
#X obj 154 225 list tosymbol;
#X obj 64 221 list length;
#X obj 37 199 t a a;
#X obj 37 243 list prepend;
#X obj 37 266 route 1 2;
#X obj 69 314 - 48;
#X obj 37 313 - 48;
#X obj 69 288 unpack;
#X obj 102 315 - 48;
#X obj 69 336 * 10;
#X obj 69 358 +;
#X obj 37 384 pack f s f;
#X obj 216 197 t a;
#X msg 37 413 \; eq-\$2 \$1 \$3;
#X connect 0 0 2 0;
#X connect 1 0 4 0;
#X connect 2 0 1 0;
#X connect 2 1 24 0;
#X connect 3 0 14 0;
#X connect 3 1 11 0;
#X connect 4 0 3 0;
#X connect 4 1 5 0;
#X connect 4 1 10 0;
#X connect 5 0 6 0;
#X connect 6 0 7 0;
#X connect 7 0 3 1;
#X connect 8 0 9 0;
#X connect 9 0 3 1;
#X connect 10 0 8 0;
#X connect 11 0 12 0;
#X connect 12 0 23 1;
#X connect 13 0 15 1;
#X connect 14 0 15 0;
#X connect 14 1 13 0;
#X connect 15 0 16 0;
#X connect 16 0 18 0;
#X connect 16 1 19 0;
#X connect 17 0 21 0;
#X connect 18 0 23 0;
#X connect 19 0 17 0;
#X connect 19 1 20 0;
#X connect 20 0 22 1;
#X connect 21 0 22 0;
#X connect 22 0 23 0;
#X connect 23 0 25 0;
#X connect 24 0 23 2;
#X restore 366 92 pd eq-data-to-tables;
#X connect 1 0 0 0;
#X connect 2 0 6 1;
#X connect 3 0 2 0;
#X connect 4 0 8 0;
#X connect 5 0 7 0;
#X connect 6 0 4 0;
#X connect 7 0 6 0;
#X connect 9 0 10 0;
#X connect 10 0 6 0;
#X connect 11 0 6 0;
#X connect 12 0 4 0;
#X connect 13 0 12 0;
#X connect 14 0 4 0;
#X connect 15 0 14 0;
#X connect 16 0 19 0;
#X connect 17 0 20 0;
#X connect 18 0 21 0;
#X connect 19 0 9 0;
#X connect 20 0 11 0;
#X connect 21 0 13 0;
