#N canvas 366 44 516 628 10;
#X obj 17 44 gemhead;
#N canvas 0 50 450 300 gemwin 0;
#X msg 198 152 destroy;
#X msg 132 120 dimen 640 360 \, create \, 1;
#X obj 132 176 gemwin 60;
#X obj 133 90 sel 1 0;
#X obj 132 61 inlet;
#X connect 0 0 2 0;
#X connect 1 0 2 0;
#X connect 3 0 1 0;
#X connect 3 1 0 0;
#X connect 4 0 3 0;
#X restore 300 34 pd gemwin;
#X obj 104 76 GLdefine GL_SMOOTH;
#X obj 104 54 loadbang;
#X obj 17 98 GEMglShadeModel;
#X obj 17 322 gemlist;
#X obj 17 254 until;
#X obj 17 276 f;
#X obj 60 278 + 1;
#X msg 77 248 0;
#X obj 17 170 t b b a;
#X obj 132 162 t b a;
#X msg 132 184 4;
#X obj 132 233 * 2;
#X obj 17 232 f;
#X obj 87 394 *;
#X obj 297 86 loadbang;
#X msg 297 108 \; segments 11 \;;
#X obj 132 138 r segments;
#X obj 32 200 r segments;
#X obj 132 206 /;
#X obj 17 298 t b a a;
#X obj 185 323 t a a a;
#X obj 185 386 tabread r;
#X obj 204 366 tabread g;
#X obj 224 346 tabread b;
#X obj 184 414 pack f f f;
#N canvas 189 331 539 429 segment 0;
#X obj 25 26 inlet;
#X obj 233 37 inlet;
#X obj 25 382 GEMglEnd;
#X obj 82 48 loadbang;
#X obj 82 70 GLdefine GL_POLYGON;
#X obj 25 93 GEMglBegin;
#X obj 189 141 t a a;
#X obj 216 243 +;
#X msg 298 215 4;
#X obj 298 239 * 2;
#X obj 298 261 / 12;
#X obj 298 170 r segments;
#X obj 298 192 t b a;
#X obj 230 210 t b a;
#X obj 336 38 inlet;
#X obj 25 154 GEMglColor3f 1 0 0;
#X obj 67 128 unpack f f f;
#X obj 63 238 unpack f f f;
#X obj 25 263 GEMglColor3f 0 0 0;
#X obj 428 38 inlet;
#X obj 25 298 GEMglVertex2f 14 0;
#X obj 25 323 GEMglVertex2f -14 0;
#X obj 25 186 GEMglVertex2f -14 0;
#X obj 25 208 GEMglVertex2f 14 0;
#X connect 0 0 5 0;
#X connect 1 0 6 0;
#X connect 3 0 4 0;
#X connect 4 0 5 1;
#X connect 5 0 15 0;
#X connect 6 0 22 2;
#X connect 6 0 23 2;
#X connect 6 1 7 0;
#X connect 7 0 20 2;
#X connect 7 0 21 2;
#X connect 8 0 9 0;
#X connect 9 0 10 0;
#X connect 10 0 13 0;
#X connect 11 0 12 0;
#X connect 12 0 8 0;
#X connect 12 1 10 1;
#X connect 13 0 7 0;
#X connect 13 1 7 1;
#X connect 14 0 16 0;
#X connect 15 0 22 0;
#X connect 16 0 15 1;
#X connect 16 1 15 2;
#X connect 16 2 15 3;
#X connect 17 0 18 1;
#X connect 17 1 18 2;
#X connect 17 2 18 3;
#X connect 18 0 20 0;
#X connect 19 0 17 0;
#X connect 20 0 21 0;
#X connect 21 0 2 0;
#X connect 22 0 23 0;
#X connect 23 0 18 0;
#X restore 17 499 pd segment _____________;
#X obj 300 326 t a a a;
#X obj 300 389 tabread r;
#X obj 319 369 tabread g;
#X obj 339 349 tabread b;
#X obj 300 414 pack f f f;
#X obj 300 302 + 1;
#X obj 87 416 - 4;
#X obj 300 11 inlet;
#X connect 0 0 4 0;
#X connect 2 0 4 1;
#X connect 3 0 2 0;
#X connect 4 0 10 0;
#X connect 5 0 27 0;
#X connect 6 0 7 0;
#X connect 7 0 8 0;
#X connect 7 0 21 0;
#X connect 8 0 7 1;
#X connect 9 0 7 1;
#X connect 10 0 14 0;
#X connect 10 1 9 0;
#X connect 10 2 5 1;
#X connect 11 0 12 0;
#X connect 11 1 20 1;
#X connect 12 0 20 0;
#X connect 13 0 15 1;
#X connect 14 0 6 0;
#X connect 15 0 34 0;
#X connect 16 0 17 0;
#X connect 18 0 11 0;
#X connect 19 0 14 1;
#X connect 20 0 13 0;
#X connect 21 0 5 0;
#X connect 21 1 15 0;
#X connect 21 2 22 0;
#X connect 21 2 33 0;
#X connect 22 0 23 0;
#X connect 22 1 24 0;
#X connect 22 2 25 0;
#X connect 23 0 26 0;
#X connect 24 0 26 1;
#X connect 25 0 26 2;
#X connect 26 0 27 2;
#X connect 28 0 29 0;
#X connect 28 1 30 0;
#X connect 28 2 31 0;
#X connect 29 0 32 0;
#X connect 30 0 32 1;
#X connect 31 0 32 2;
#X connect 32 0 27 3;
#X connect 33 0 28 0;
#X connect 34 0 27 1;
#X connect 35 0 1 0;
