#N canvas 325 94 450 300 10;
#X obj 20 18 inlet;
#X obj 20 258 outlet;
#X obj 47 139 pow;
#X obj 47 96 t b a;
#X msg 47 118 2;
#X obj 20 169 pow 2;
#X obj 47 58 r curve;
#X connect 0 0 5 0;
#X connect 2 0 5 1;
#X connect 3 0 4 0;
#X connect 3 1 2 1;
#X connect 4 0 2 0;
#X connect 5 0 1 0;
#X connect 6 0 3 0;
