#N canvas 262 275 477 446 10;
#X obj 21 61 text define colormapping;
#X msg 21 37 read -c colormapping.txt;
#X obj 21 16 loadbang;
#X obj 96 185 text get colormapping;
#X obj 96 114 t b b;
#X obj 96 136 until;
#X obj 96 161 f;
#X obj 123 161 + 1;
#X msg 134 136 0;
#X obj 219 209 sel 2;
#X obj 96 207 list trim;
#X obj 95 252 route # displayresolution fullscreen;
#X obj 308 272 t a a;
#X msg 308 294 \$3;
#X obj 308 316 tabread notes;
#X obj 308 338 * 50;
#X msg 335 294 \$2 \$1;
#X obj 308 365 list prepend;
#X msg 308 393 \; \$1 \$2 \$3;
#X obj 94 93 r refreshdisplay;
#X obj 96 229 route bang;
#X connect 1 0 0 0;
#X connect 2 0 1 0;
#X connect 3 0 10 0;
#X connect 3 1 9 0;
#X connect 4 0 5 0;
#X connect 4 1 8 0;
#X connect 5 0 6 0;
#X connect 6 0 7 0;
#X connect 6 0 3 0;
#X connect 7 0 6 1;
#X connect 8 0 6 1;
#X connect 9 0 5 1;
#X connect 10 0 20 0;
#X connect 11 3 12 0;
#X connect 12 0 13 0;
#X connect 12 1 16 0;
#X connect 13 0 14 0;
#X connect 14 0 15 0;
#X connect 15 0 17 0;
#X connect 16 0 17 1;
#X connect 17 0 18 0;
#X connect 19 0 4 0;
#X connect 20 1 11 0;
