#N canvas 67 212 516 294 10;
#N canvas 599 262 318 232 freq2pitch 0;
#X obj 7 20 inlet;
#X obj 7 158 outlet;
#X obj 7 64 ftom;
#X obj 7 111 int;
#X obj 7 88 + 0.5;
#X obj 7 42 unpack f f;
#X obj 7 134 pack f f;
#X connect 0 0 5 0;
#X connect 2 0 4 0;
#X connect 3 0 6 0;
#X connect 4 0 3 0;
#X connect 5 0 2 0;
#X connect 5 1 6 1;
#X connect 6 0 1 0;
#X restore 20 91 pd freq2pitch;
#N canvas 335 183 415 343 write_to_table 0;
#X obj 72 30 inlet;
#X msg 47 222 const 0;
#X obj 103 257 outlet;
#N canvas 844 586 265 277 reblocking 0;
#X obj 71 110 bang~;
#X obj 71 132 outlet;
#X obj 44 60 block~ 2048 1 1;
#X connect 0 0 1 0;
#X restore 76 171 pd reblocking;
#X obj 76 193 t b b;
#X obj 72 106 s \$1;
#X obj 47 244 s \$1;
#X msg 72 81 \$1 \$2;
#X connect 0 0 7 0;
#X connect 1 0 6 0;
#X connect 3 0 4 0;
#X connect 4 0 1 0;
#X connect 4 1 2 0;
#X connect 7 0 5 0;
#X restore 20 165 pd write_to_table;
#X obj 20 42 sigmund~ -npts 8192 -hop 2048 -npeak 36 peaks;
#X text 367 269 2016 \, Roman Haefeli;
#X obj 20 17 inlet~;
#X msg 20 64 \$2 \$3;
#N canvas 0 44 323 201 outgain 0;
#X obj 27 97 pack f f;
#X obj 27 53 unpack f f;
#X obj 27 26 inlet;
#X obj 109 28 inlet;
#X obj 27 118 outlet;
#X obj 72 75 * 1;
#X connect 0 0 4 0;
#X connect 1 0 0 0;
#X connect 1 1 5 0;
#X connect 2 0 1 0;
#X connect 3 0 5 1;
#X connect 5 0 0 1;
#X restore 20 122 pd outgain;
#X obj 90 122 r outgain;
#X obj 20 206 outlet;
#X text 77 206 bang after each completed analysis;
#X connect 0 0 6 0;
#X connect 1 0 8 0;
#X connect 2 0 5 0;
#X connect 4 0 2 0;
#X connect 5 0 0 0;
#X connect 6 0 1 0;
#X connect 7 0 6 1;
